<svg xmlns="http://www.w3.org/2000/svg" width="16" height="16" viewBox="0 0 16 16">
  <g fill="none" fill-rule="evenodd">
    <path fill="#40B6E0" fill-opacity=".7" d="M6.34588358,14 L2,14 L2,2 L14,2 L14,7.17264983 C13.403964,6.45603107 12.5054828,6 11.5,6 C9.704375,6 8.25,7.454375 8.25,9.25 C8.25,10.3507898 8.79658024,11.3233318 9.63328629,11.9111714 C8.34124457,12.2704759 6.97029238,12.9676496 6.34588358,14 Z"/>
    <path fill="#9AA7B0" d="M11.5 11.5C12.743125 11.5 13.75 10.493125 13.75 9.25 13.75 8.006875 12.743125 7 11.5 7 10.256875 7 9.25 8.006875 9.25 9.25 9.25 10.493125 10.256875 11.5 11.5 11.5zM11.5 12.625C9.998125 12.625 7 13.37875 7 14.875L7 16 16 16 16 14.875C16 13.37875 13.001875 12.625 11.5 12.625z"/>
  </g>
</svg>
