<svg xmlns="http://www.w3.org/2000/svg" width="16" height="16" viewBox="0 0 16 16">
  <path fill="#935E2D" fill-opacity=".7" fill-rule="evenodd" d="M8.18037885,13.5800917 L2.34337885,7.74309168 C3.92937885,6.46609168 5.96237885,6.92309168 7.48237885,8.44209168 C9.00037885,9.96109168 9.45637885,11.9940917 8.18037885,13.5800917 Z M7.57937885,14.1810917 C5.99337885,15.4580917 3.96137885,15.0020917 2.44237885,13.4820917 C0.92237885,11.9630917 0.46637885,9.93009168 1.74337885,8.34509168 L7.57937885,14.1810917 Z M14.1803789,7.58009168 L8.34337885,1.74309168 C9.92937885,0.466091676 11.9623789,0.923091676 13.4823789,2.44209168 C15.0003789,3.96109168 15.4563789,5.99409168 14.1803789,7.58009168 Z M13.5793789,8.18109168 C11.9933789,9.45809168 9.96137885,9.00209168 8.44237885,7.48209168 C6.92237885,5.96309168 6.46637885,3.93009168 7.74337885,2.34509168 L13.5793789,8.18109168 Z"/>
</svg>
