<svg xmlns="http://www.w3.org/2000/svg" width="16" height="16" viewBox="0 0 16 16">
  <g fill="none" fill-rule="evenodd">
    <g transform="translate(8 7.1)">
      <polygon fill="#202A5A" points="7.393 2.267 4 .296 .296 2.37 .296 6.519 4 8.593 7.556 6.519 7.556 2.37 7.556 2.193"/>
      <polygon fill="#2C448A" points=".296 2.37 4 4.444 7.556 2.37 4 .296"/>
      <polygon fill="#283A79" points="7.556 2.193 6.37 2.815 6.356 3.081 4 4.444 4 8.593 7.556 6.519"/>
      <polygon fill="#202A5A" points=".296 2.37 .296 6.519 4 8.593 4 4.444"/>
      <polygon fill="#3558A7" points="0 6.519 0 5.185 4 7.556 4 8.889"/>
      <polygon fill="#3558A7" points="0 2.37 0 3.111 4 5.481 4 4.741"/>
      <polygon fill="#416FB5" points="7.852 6.519 7.852 5.778 4.607 4.37 4 4.741 4 5.467 5.97 6.341 4 7.556 4 8.889"/>
      <polygon fill="#477FC1" points="5.97 6.341 5.733 6.252 4 7.259 .296 5.185 .296 5.007 0 5.185 4 7.556"/>
      <polygon fill="#477FC1" points="1.748 2.667 4 1.333 6.37 2.815 7.556 2.193 4 0 0 2.37 4 4.741 4.607 4.37"/>
      <polygon fill="#202A5A" points="6.356 3.081 6.37 2.815 4 1.333 1.748 2.667 2 2.815 4 1.63"/>
    </g>
    <polygon fill="#9AA7B0" fill-opacity=".8" points="7 1 3 5 7 5"/>
    <path fill="#9AA7B0" fill-opacity=".8" d="M13,6.65 L12,6 L7,9 L7,15 L3,15 L3,6 L8,6 L8,1 L13,1 L13,6.65 Z"/>
  </g>
</svg>
