<svg xmlns="http://www.w3.org/2000/svg" width="13" height="13" viewBox="0 0 13 13">
  <g fill="none" fill-rule="evenodd">
    <polygon fill="#AFB1B3" points="1 9.533 1 7.583 6.85 11.05 6.85 13"/>
    <polygon fill="#AFB1B3" points="1 3.467 1 4.55 6.85 8.017 6.85 6.933"/>
    <polygon fill="#AFB1B3" points="12.483 9.533 12.483 8.45 7.738 6.392 6.85 6.933 6.85 7.995 9.732 9.273 6.85 11.05 6.85 13"/>
    <polygon fill="#AFB1B3" points="9.732 9.273 9.385 9.143 6.85 10.617 1.433 7.583 1.433 7.323 1 7.583 6.85 11.05"/>
    <polygon fill="#AFB1B3" points="3.557 3.9 6.85 1.95 10.317 4.117 12.05 3.207 6.85 0 1 3.467 6.85 6.933 7.738 6.392"/>
    <polygon fill="#AFB1B3" points="10.295 4.507 10.317 4.117 6.85 1.95 3.557 3.9 3.925 4.117 6.85 2.383"/>
  </g>
</svg>
