<svg xmlns="http://www.w3.org/2000/svg" width="13" height="13" viewBox="0 0 13 13">
  <g fill="#6E6E6E" fill-rule="evenodd" transform="translate(1)">
    <polygon points="0 9.533 0 7.583 5.85 11.05 5.85 13"/>
    <polygon points="0 3.467 0 4.55 5.85 8.017 5.85 6.933"/>
    <polygon points="11.483 9.533 11.483 8.45 6.738 6.392 5.85 6.933 5.85 7.995 8.732 9.273 5.85 11.05 5.85 13"/>
    <polygon points="8.732 9.273 8.385 9.143 5.85 10.617 .433 7.583 .433 7.323 0 7.583 5.85 11.05"/>
    <polygon points="2.557 3.9 5.85 1.95 9.317 4.117 11.05 3.207 5.85 0 0 3.467 5.85 6.933 6.738 6.392"/>
    <polygon points="9.295 4.507 9.317 4.117 5.85 1.95 2.557 3.9 2.925 4.117 5.85 2.383"/>
  </g>
</svg>
