<svg width="40" height="40" viewBox="0 0 40 40" fill="none" xmlns="http://www.w3.org/2000/svg">
<path d="M19.9999 3C16.6376 3.00003 13.3508 3.99709 10.5552 5.8651C7.75957 7.73311 5.58066 10.3882 4.29399 13.4945C3.00733 16.6009 2.67071 20.019 3.32669 23.3167C3.98268 26.6144 5.60181 29.6435 7.97933 32.021C10.3569 34.3984 13.386 36.0175 16.6837 36.6734C19.9814 37.3293 23.3995 36.9926 26.5058 35.7059C29.6122 34.4191 32.2672 32.2402 34.1351 29.4445C36.0031 26.6488 37.0001 23.362 37 19.9997C37 17.7673 36.5603 15.5566 35.706 13.4941C34.8517 11.4316 33.5994 9.55749 32.0208 7.9789C30.4422 6.40032 28.5681 5.14814 26.5056 4.29385C24.443 3.43957 22.2324 2.99992 19.9999 3ZM15.4782 21.5007C15.2234 21.6128 14.8982 21.7401 14.7711 21.8076C14.4537 21.9813 14.1799 22.2247 13.9703 22.5197C13.6962 22.8978 13.5634 23.36 13.5948 23.8259C13.5975 24.4046 13.6908 24.9793 13.8713 25.5292C14.0766 26.0733 14.1884 26.2546 14.4252 26.8058C14.5257 27.0391 14.62 27.2615 14.6656 27.3699C14.6747 27.391 14.6784 27.4141 14.6762 27.4369C14.6741 27.4598 14.6662 27.4818 14.6533 27.5008C14.5424 27.6689 14.3921 27.8073 14.2154 27.9038C13.6761 28.1104 13.1025 28.213 12.525 28.206H12.5232C11.9458 28.2127 11.3724 28.1102 10.8331 27.9038C10.6565 27.8073 10.5064 27.6689 10.3958 27.5008C10.3828 27.4818 10.3749 27.4599 10.3727 27.437C10.3704 27.4141 10.3739 27.391 10.3829 27.3699C10.429 27.2615 10.5236 27.0389 10.6239 26.8058C10.8606 26.2546 10.9724 26.0733 11.1777 25.5292C11.3582 24.9793 11.4515 24.4046 11.454 23.8259C11.4601 23.6424 11.4469 23.4588 11.4147 23.2781C11.3427 23.0093 11.2292 22.7534 11.0782 22.5197C10.8686 22.2248 10.5949 21.9814 10.2777 21.8076C10.1017 21.7141 9.54233 21.5044 9.32236 21.3831C9.01198 21.2083 8.71436 21.0118 8.43173 20.795C8.06524 20.4899 7.72436 20.1553 7.41253 19.7946C6.98533 19.2917 6.66198 18.7091 6.46116 18.0806C6.32734 17.6352 6.24553 17.1757 6.21736 16.7115C6.21618 16.7013 6.2171 16.691 6.22007 16.6812C6.22303 16.6713 6.22798 16.6622 6.23461 16.6544C6.24124 16.6466 6.2494 16.6402 6.25859 16.6356C6.26778 16.6311 6.27781 16.6285 6.28806 16.628C6.50306 16.6209 7.27741 16.6031 9.98227 16.5989C10.0083 16.5986 10.0338 16.6064 10.0553 16.6211C10.0768 16.6358 10.0933 16.6567 10.1025 16.6811C10.6126 17.7877 11.3562 18.7707 12.282 19.5629C13.2079 20.355 14.2942 20.9375 15.4664 21.2702C15.4902 21.278 15.5111 21.2927 15.5263 21.3126C15.5415 21.3324 15.5503 21.3564 15.5516 21.3814C15.5529 21.4064 15.5465 21.4312 15.5334 21.4525C15.5203 21.4738 15.501 21.4906 15.4782 21.5007ZM22.1378 27.2363C22.4706 28.1202 22.6524 28.4132 23.0371 29.3093C23.1997 29.6877 23.3531 30.0494 23.4278 30.2238C23.4424 30.2584 23.4483 30.296 23.4448 30.3334C23.4413 30.3708 23.4286 30.4067 23.4079 30.438C23.2275 30.7105 22.9834 30.9351 22.6969 31.0922C21.8212 31.4284 20.8895 31.5945 19.9517 31.5816H19.9491C19.0113 31.5945 18.0797 31.4284 17.2041 31.0922C16.9178 30.9351 16.6741 30.7106 16.4942 30.438C16.4734 30.4067 16.4607 30.3708 16.4573 30.3334C16.4538 30.296 16.4596 30.2584 16.4743 30.2238C16.5489 30.0494 16.7013 29.6877 16.864 29.3093C17.2489 28.4132 17.4306 28.1201 17.7637 27.2363C18.0573 26.3432 18.209 25.4095 18.2134 24.4693C18.2226 24.1715 18.2012 23.8735 18.1495 23.58C18.0323 23.1441 17.8478 22.7291 17.6027 22.35C17.2631 21.8709 16.8186 21.4758 16.303 21.1946C16.016 21.0417 15.1086 20.7015 14.7512 20.504C14.2472 20.2207 13.764 19.9019 13.3052 19.55C12.71 19.0547 12.1567 18.5112 11.6509 17.925C10.9571 17.1084 10.4317 16.1626 10.1051 15.142C9.88872 14.4186 9.75614 13.6727 9.70993 12.919C9.70785 12.9024 9.70922 12.8856 9.71397 12.8696C9.71872 12.8536 9.72674 12.8388 9.73752 12.826C9.7483 12.8133 9.7616 12.8029 9.7766 12.7955C9.79159 12.7882 9.80795 12.784 9.82463 12.7833C10.2648 12.7674 12.1464 12.7265 19.9514 12.7344C27.7557 12.7265 29.6372 12.7674 30.0772 12.7833C30.0939 12.7839 30.1104 12.788 30.1255 12.7952C30.1405 12.8025 30.1539 12.8129 30.1648 12.8257C30.1756 12.8385 30.1836 12.8534 30.1883 12.8694C30.1931 12.8855 30.1944 12.9024 30.1922 12.919C30.146 13.6727 30.0135 14.4186 29.7973 15.1421C29.4703 16.1625 28.9449 17.1083 28.2512 17.9251C27.7453 18.5111 27.1921 19.0545 26.5972 19.55C26.138 19.9018 25.6546 20.2205 25.1504 20.504C24.7934 20.7015 23.8855 21.0416 23.5996 21.1946C23.0838 21.4758 22.6389 21.871 22.2988 22.35C22.054 22.7291 21.8699 23.1441 21.7531 23.58C21.701 23.8734 21.6796 24.1715 21.6892 24.4693C21.6927 25.4095 21.8441 26.3432 22.1378 27.2363ZM32.587 19.7943C32.2755 20.1552 31.9349 20.4898 31.5685 20.7947C31.2857 21.0115 30.9878 21.2081 30.6771 21.3829C30.4571 21.5041 29.8981 21.7139 29.7226 21.8074C29.405 21.981 29.1309 22.2245 28.921 22.5194C28.6481 22.8981 28.5152 23.3598 28.5452 23.8257C28.5482 24.4044 28.6416 24.979 28.822 25.5289C29.0276 26.0731 29.1392 26.2543 29.3759 26.8055C29.4762 27.0389 29.5702 27.2612 29.6168 27.3696C29.6258 27.3908 29.6293 27.4139 29.6271 27.4367C29.6249 27.4596 29.6169 27.4816 29.604 27.5006C29.4933 27.6686 29.3431 27.8069 29.1667 27.9036C28.6273 28.1101 28.0538 28.2126 27.4763 28.2058H27.4747C26.8972 28.2126 26.3237 28.1101 25.7843 27.9036C25.6077 27.8071 25.4573 27.6687 25.3465 27.5006C25.3336 27.4816 25.3256 27.4596 25.3234 27.4367C25.3211 27.4139 25.3247 27.3908 25.3337 27.3696C25.3797 27.2612 25.4738 27.0386 25.5746 26.8055C25.8113 26.2543 25.9229 26.0731 26.1279 25.5289C26.3085 24.9791 26.4021 24.4044 26.4052 23.8257C26.4105 23.6422 26.3974 23.4586 26.366 23.2778C26.2937 23.0091 26.1802 22.7533 26.0295 22.5194C25.8198 22.2245 25.5459 21.981 25.2284 21.8074C25.1016 21.7398 24.7754 21.6125 24.5216 21.5005C24.4987 21.4904 24.4794 21.4735 24.4662 21.4522C24.4531 21.4309 24.4467 21.4061 24.448 21.381C24.4493 21.356 24.4581 21.332 24.4734 21.3121C24.4886 21.2922 24.5096 21.2775 24.5334 21.2697C25.7056 20.9371 26.7919 20.3547 27.7177 19.5625C28.6436 18.7704 29.387 17.7872 29.897 16.6806C29.9063 16.6563 29.9228 16.6354 29.9443 16.6208C29.9658 16.6061 29.9912 16.5983 30.0172 16.5984C32.7223 16.6028 33.4967 16.6204 33.7114 16.6274C33.7216 16.628 33.7317 16.6306 33.7408 16.6352C33.75 16.6398 33.7581 16.6462 33.7648 16.654C33.7714 16.6618 33.7763 16.6709 33.7793 16.6807C33.7823 16.6905 33.7833 16.7008 33.7821 16.711C33.7543 17.1752 33.6726 17.6347 33.5386 18.0801C33.3378 18.7088 33.0144 19.2914 32.587 19.7943L32.587 19.7943Z" fill="#FEB672"/>
</svg>
