<svg xmlns="http://www.w3.org/2000/svg" width="16" height="16" viewBox="0 0 16 16">
  <g fill="none" fill-rule="evenodd">
    <path fill="#C8C8C8"
          d="M12.0322,15 L3.9682,15 C2.3362,15 1.0002,13.664 1.0002,12.032 L1.0002,7.766 C1.0002,6.133 2.3362,4.797 3.9682,4.797 L12.0322,4.797 C13.6642,4.797 15.0002,6.133 15.0002,7.766 L15.0002,12.032 C15.0002,13.664 13.6642,15 12.0322,15"/>
    <path fill="#909A97"
          d="M12.0322,14.2178 L3.9682,14.2178 C2.3362,14.2178 1.0002,12.8818 1.0002,11.2488 L1.0002,6.9828 C1.0002,5.3508 2.3362,4.0148 3.9682,4.0148 L12.0322,4.0148 C13.6642,4.0148 15.0002,5.3508 15.0002,6.9828 L15.0002,11.2488 C15.0002,12.8818 13.6642,14.2178 12.0322,14.2178"/>
    <path fill="#EB4050"
          d="M1.4287,11.25 L1.4287,6.982 C1.4287,5.58 2.5667,4.443 3.9687,4.443 L12.0317,4.443 C13.4337,4.443 14.5717,5.58 14.5717,6.982 L14.5717,11.25 C14.5717,12.652 13.4337,13.789 12.0317,13.789 L3.9687,13.789 C2.5667,13.789 1.4287,12.652 1.4287,11.25"/>
    <path fill="#C2C2C2"
          d="M12.0322,12.333 L3.9682,12.333 C2.3362,12.333 1.0002,10.997 1.0002,9.365 L1.0002,5.099 C1.0002,3.466 2.3362,2.131 3.9682,2.131 L12.0322,2.131 C13.6642,2.131 15.0002,3.466 15.0002,5.099 L15.0002,9.365 C15.0002,10.997 13.6642,12.333 12.0322,12.333"/>
    <path fill="#E5E5E5"
          d="M12.0322,11.2031 L3.9682,11.2031 C2.3362,11.2031 1.0002,9.8671 1.0002,8.2341 L1.0002,3.9681 C1.0002,2.3361 2.3362,1.0001 3.9682,1.0001 L12.0322,1.0001 C13.6642,1.0001 15.0002,2.3361 15.0002,3.9681 L15.0002,8.2341 C15.0002,9.8671 13.6642,11.2031 12.0322,11.2031"/>
    <path fill="#A0A0A0"
          d="M7.04250909,4.2787064 C7.31920331,4.44440407 7.57903802,4.6002907 7.84879008,4.76053779 C7.62366612,5.23473837 7.4084595,5.6849564 7.18135207,6.16242733 L8.77705455,6.16242733 C8.33573223,5.26199128 7.45705455,3.47747093 7.45705455,3.47747093 L8.25143471,3 L9.83424463,6.17768895 L10.8309388,6.17768895 L10.8309388,7.16424419 L10.3400298,7.19149709 L10.9916,8.5247093 L10.1813521,9 L9.28184793,7.17296512 L6.67457521,7.17405523 L5.8038314,9 L4.9916,8.52688953 L5.63027769,7.19367733 L5.14730248,7.19367733 L5.14730248,6.17768895 L6.1162281,6.18204942 C6.1162281,6.18204942 6.75788099,4.86736919 7.04250909,4.2787064"/>
  </g>
</svg>
