<svg xmlns="http://www.w3.org/2000/svg" width="16" height="16" viewBox="0 0 16 16">
  <g fill="none" fill-rule="evenodd">
    <path fill="#B99BF8" fill-opacity=".6" d="M15,8 C15,11.866 11.866,15 8,15 C4.134,15 1,11.866 1,8 C1,4.134 4.134,1 8,1 C11.866,1 15,4.134 15,8"/>
    <path fill="#231F20" fill-opacity=".7" d="M1.81632487e-13,6 L1.81632487e-13,0 L2.67428571,0 C3.42857143,0 4.02,0.222857143 4.40571429,0.6 C4.72285714,0.925714286 4.90285714,1.37142857 4.90285714,1.89428571 L4.90285714,1.91142857 C4.90285714,2.89714286 4.31142857,3.48857143 3.48,3.72857143 L5.1,6 L3.84857143,6 L2.37428571,3.90857143 L1.05428571,3.90857143 L1.05428571,6 L1.81632487e-13,6 Z M1.05428571,2.97428571 L2.59714286,2.97428571 C3.35142857,2.97428571 3.83142857,2.58 3.83142857,1.97142857 L3.83142857,1.95428571 C3.83142857,1.31142857 3.36857143,0.96 2.58857143,0.96 L1.05428571,0.96 L1.05428571,2.97428571 Z" transform="translate(6 5)"/>
  </g>
</svg>
