<svg width="16" height="16" viewBox="0 0 16 16" fill="none" xmlns="http://www.w3.org/2000/svg">
<path d="M10.0886 1.31685L9.64111 2.74895C11.5675 3.35033 13.0389 4.98259 13.4095 6.99999H14.9293C14.5441 4.30743 12.6267 2.10916 10.0886 1.31685Z" fill="#E08855"/>
<path d="M5.91152 14.6831C3.0656 13.7947 1 11.1386 1 8H2.5C2.5 10.466 4.12297 12.553 6.35905 13.251L5.91152 14.6831Z" fill="#E08855"/>
<path d="M8 5C6.34315 5 5 6.34315 5 8C5 8.54653 5.14615 9.05893 5.40149 9.50025L6.70075 8.75012C6.57307 8.52947 6.5 8.27327 6.5 8C6.5 7.17157 7.17157 6.5 8 6.5V5Z" fill="#E08855"/>
<path d="M9.11828 9H10.8295C10.516 9.8871 9.79703 10.5827 8.89529 10.8642L8.44775 9.4321C8.70924 9.35047 8.93998 9.1992 9.11828 9Z" fill="#E08855"/>
<path d="M7.99955 1C4.86097 1 2.20483 3.0656 1.31641 5.91152L2.74851 6.35905C3.44655 4.12297 5.53352 2.5 7.99955 2.5V1Z" fill="#CED0D6"/>
<path d="M13.4089 9C12.9386 11.5601 10.6956 13.5 7.99955 13.5V15C11.526 15 14.4434 12.3923 14.9287 9H13.4089Z" fill="#CED0D6"/>
<path d="M10.829 6.99999H9.11775C8.93946 6.80079 8.70871 6.64952 8.44723 6.56789L8.89476 5.13579C9.7965 5.41729 10.5154 6.11289 10.829 6.99999Z" fill="#CED0D6"/>
<path d="M6.98349 9.10333L5.96729 10.2067C6.50176 10.6992 7.2156 11 7.99969 11V9.49999C7.60765 9.49999 7.25073 9.34959 6.98349 9.10333Z" fill="#CED0D6"/>
<path d="M7.99951 11.5C9.58502 11.5 10.9243 10.4457 11.3546 9H12.8995C12.4362 11.2822 10.4185 13 7.99951 13C5.23809 13 2.99951 10.7614 2.99951 8C2.99951 5.23858 5.23809 3 7.99951 3C10.4185 3 12.4362 4.71776 12.8995 7H11.3546C10.9243 5.55426 9.58502 4.5 7.99951 4.5C6.06651 4.5 4.49951 6.067 4.49951 8C4.49951 9.933 6.06651 11.5 7.99951 11.5Z" fill="#CED0D6"/>
</svg>
