<svg xmlns="http://www.w3.org/2000/svg" xmlns:xlink="http://www.w3.org/1999/xlink" width="40" height="40" viewBox="0 0 40 40">
  <defs>
    <polygon id="chef-a" points=".087 0 30.875 0 30.875 32 .087 32"/>
    <polygon id="chef-c" points=".268 .527 4.876 .527 4.876 7 .268 7"/>
  </defs>
  <g fill="none" fill-rule="evenodd" transform="translate(4 4)">
    <path fill="#435363" d="M16.0005,23.2051 C12.0275,23.2051 8.7945,19.9731 8.7945,16.0001 C8.7945,12.0261 12.0275,8.7931 16.0005,8.7931 C19.2805,8.7931 22.0535,10.9961 22.9225,14.0001 L25.7115,14.0001 C24.7825,9.4891 20.7815,6.0861 16.0005,6.0861 C10.5345,6.0861 6.0875,10.5341 6.0875,16.0001 C6.0875,21.4661 10.5345,25.9131 16.0005,25.9131 C20.7815,25.9131 24.7825,22.5121 25.7105,18.0001 L22.9225,18.0001 C22.0535,21.0031 19.2805,23.2051 16.0005,23.2051"/>
    <path fill="#435363" d="M11.1431,20.8574 C12.3871,22.1014 14.1061,22.8734 16.0001,22.8734 L16.0001,20.0004 C14.9401,20.0014 13.9211,19.5794 13.1721,18.8284 L11.1431,20.8574 Z"/>
    <path fill="#F38B00" d="M9.1274,15.9995 C9.1274,16.9825 9.3374,17.9175 9.7104,18.7655 L12.3394,17.6095 C12.1144,17.1025 11.9994,16.5535 12.0004,15.9995 C12.0004,13.7905 13.7914,11.9995 16.0004,11.9995 L16.0004,9.1265 C12.2104,9.1265 9.1274,12.2095 9.1274,15.9995"/>
    <path fill="#435363" d="M18.4927,9.5947 L17.4497,12.2737 C18.2977,12.6037 19.0077,13.2117 19.4637,13.9987 L22.5747,13.9987 C21.9617,11.9827 20.4417,10.3557 18.4927,9.5947"/>
    <path fill="#F38B00" d="M19.4634,18 C19.0084,18.787 18.2984,19.396 17.4514,19.726 L18.4924,22.404 C20.4424,21.643 21.9614,20.017 22.5754,18 L19.4634,18 Z"/>
    <g transform="translate(1)">
      <mask id="chef-b" fill="#fff">
        <use xlink:href="#chef-a"/>
      </mask>
      <path fill="#F38B00" d="M15.0005,2.7139 C17.9775,2.7139 20.7265,3.6969 22.9425,5.3569 L24.5695,3.1769 C21.8995,1.1819 18.5885,-0.0001 15.0005,-0.0001 C8.2115,-0.0001 2.4105,4.2289 0.0875,10.1969 L2.6195,11.1819 C4.5525,6.2309 9.3735,2.7139 15.0005,2.7139 M15.0005,29.2859 C11.3375,29.2859 8.0175,27.7949 5.6115,25.3889 L3.6885,27.3119 C6.5845,30.2069 10.5825,31.9999 15.0005,31.9999 C23.1595,31.9999 29.8915,25.8929 30.8755,17.9999 L28.1365,17.9999 C27.1685,24.3799 21.6465,29.2859 15.0005,29.2859" mask="url(#chef-b)"/>
    </g>
    <g transform="translate(27 7)">
      <mask id="chef-d" fill="#fff">
        <use xlink:href="#chef-c"/>
      </mask>
      <path fill="#435363" d="M2.1372,7 L4.8762,7 C4.5902,4.7 3.8042,2.491 2.5742,0.527 L0.2682,1.967 C1.2292,3.499 1.8652,5.212 2.1362,7" mask="url(#chef-d)"/>
    </g>
    <path fill="#F38B00" d="M26.0513,14 L28.7993,14 C28.0823,9.391 24.9263,5.581 20.6973,3.93 L19.7153,6.454 C22.9313,7.709 25.3643,10.543 26.0513,14"/>
    <path fill="#435363" d="M16.0005,5.7534 L16.0015,3.0464 L16.0005,3.0464 C10.5145,3.0464 5.8145,6.4754 3.9305,11.3024 L6.4515,12.2844 C7.9425,8.4654 11.6605,5.7534 16.0005,5.7534"/>
    <path fill="#F38B00" d="M5.7544,16 L3.0484,16 C3.0484,21.442 6.4244,26.109 11.1914,28.023 L12.1954,25.511 C8.4244,23.997 5.7544,20.306 5.7544,16"/>
    <path fill="#435363" d="M3.2847 19.8438C3.2397 19.6938 3.1967 19.5418 3.1557 19.3898L3.1487 19.3628C3.1117 19.2208 3.0767 19.0788 3.0447 18.9368 3.0107 18.7848 2.9777 18.6328 2.9487 18.4798 2.9377 18.4248 2.9297 18.3688 2.9197 18.3148 2.9027 18.2158 2.8857 18.1168 2.8697 18.0178 2.8567 17.9328 2.8457 17.8478 2.8347 17.7638 2.7547 17.1788 2.7147 16.5898 2.7147 15.9998L.000682131029 15.9998C-.0003 16.6498.0407 17.2918.1167 17.9248.1177 17.9388.1207 17.9518.1217 17.9658.1427 18.1388.1667 18.3108.1937 18.4818.2007 18.5298.2097 18.5758.2177 18.6238.2407 18.7638.2647 18.9048.2927 19.0438.3057 19.1178.3217 19.1918.3377 19.2658.3597 19.3758.3847 19.4878.4097 19.5978.4317 19.6948.4557 19.7908.4807 19.8888.5027 19.9748.5237 20.0608.5467 20.1468.5777 20.2608.6107 20.3738.6427 20.4878.6567 20.5348.6697 20.5828.6837 20.6298L.6847 20.6298C.8707 21.2458 1.0937 21.8508 1.3517 22.4398L3.8397 21.3458C3.6247 20.8578 3.4397 20.3558 3.2857 19.8438L3.2847 19.8438zM26.0493 18C25.1163 22.696 20.9663 26.245 16.0003 26.245L16.0003 28.952C22.4623 28.952 27.8333 24.195 28.7993 18L26.0493 18z"/>
  </g>
</svg>
