<svg xmlns="http://www.w3.org/2000/svg" width="16" height="16" viewBox="0 0 16 16">
  <g fill="none" fill-rule="evenodd" transform="translate(4 1)">
    <path fill="#92D13D" d="M0.391769547,0.743209877 L0.748971193,0.38600823 C1.2962963,-0.155555556 2.18930041,-0.120987654 2.69053498,0.46090535 L7.63374486,6.22222222 C8.06584362,6.72345679 8.0600823,7.46666667 7.62222222,7.96213992 L2.6962963,13.544856 C2.18930041,14.1152263 1.30781893,14.1440329 0.766255144,13.6024691 L0.403292181,13.2510288 C-0.0806584362,12.7670782 -0.115226337,11.9950617 0.322633745,11.4650206 L3.27242798,7.92757202 C3.67572016,7.4436214 3.68148148,6.74650206 3.28971193,6.25102881 L0.29382716,2.50617284 C-0.132510288,1.981893 -0.0864197531,1.22139918 0.391769547,0.743209877 Z"/>
    <path fill="#49691F" d="M3.27242798,7.92757202 L0.322633745,11.4650206 C-0.115226337,11.9893004 -0.0806584362,12.7670782 0.403292181,13.2510288 L0.760493827,13.6082305 C1.30205761,14.1497942 2.18353909,14.1209877 2.69053498,13.5506173 L3.7563786,12.3407407 C4.15967078,11.545679 4.38436214,10.6469136 4.38436214,9.6962963 C4.38436214,8.52098765 4.03868313,7.43209877 3.45102881,6.51604938 C3.66995885,6.9654321 3.60658436,7.52427984 3.27242798,7.92757202 Z"/>
  </g>
</svg>
