<svg xmlns="http://www.w3.org/2000/svg" width="16" height="16" viewBox="0 0 16 16">
  <g fill="none" fill-rule="evenodd">
    <path fill="#FEB672" fill-rule="nonzero" d="M7.21526869,13.987703 C7.1437772,13.989865 7.07201579,13.9909538 7,13.9909538 C3.13912308,13.9909538 0.00893846154,10.8609846 0.00893846154,6.99989231 C0.00893846154,3.13869231 3.13901538,0.00904615385 7,0.00904615385 C10.8612,0.00904615385 13.9911692,3.13869231 13.9911692,6.99989231 C13.9911692,7.67259102 13.8961611,8.32309697 13.7188305,8.9387239 L12.2249195,8.85558898 L11.6688558,7.3925297 C11.7008039,7.36990328 11.7308726,7.3476546 11.7575231,7.32680014 C11.8698462,7.2391386 12.0902923,7.02246168 12.1763385,6.91541553 C12.3417538,6.71036937 12.4940308,6.46989245 12.5676923,6.21046168 C12.6592308,5.88878476 12.6561077,5.75126168 12.6678462,5.6474463 C12.6698923,5.62989245 12.6566462,5.61416937 12.6387692,5.61309245 C12.5504615,5.61018476 12.2320154,5.60296937 11.1195538,5.6011386 C11.0979077,5.60081553 11.0780923,5.61449245 11.0701231,5.63495399 C11.0589053,5.66468259 11.0470402,5.69422677 11.0345389,5.72357873 L10.9495635,5.5 L10.8260909,5.5 C10.9101523,5.34033945 10.980221,5.17381584 11.0290923,5.00226142 C11.1773846,4.48006142 11.1716769,4.25681527 11.1914923,4.08806142 C11.1951538,4.05887681 11.1734,4.03335373 11.1442154,4.03227681 C10.9632923,4.02570758 10.1895231,4.00890758 6.98007692,4.01213835 C3.77030769,4.00890758 2.99653846,4.02570758 2.81550769,4.03227681 C2.78664615,4.03335373 2.765,4.05887681 2.76833846,4.08806142 C2.78815385,4.25681527 2.78244615,4.47995373 2.93084615,5.00226142 C3.05049231,5.42301527 3.29796923,5.81350758 3.56655385,6.14670758 C3.70633846,6.32095373 4.06452308,6.67235373 4.24684615,6.81493835 C4.41043077,6.94287681 4.65435385,7.10419989 4.84152308,7.20726142 C4.98852308,7.28846142 5.36167692,7.42835373 5.47970769,7.49124604 C5.63575385,7.57449219 5.87849231,7.75627681 6.01418462,7.9663845 C6.11498462,8.12243066 6.20878462,8.33361527 6.23904615,8.47221527 C6.25789231,8.55987681 6.26683077,8.68856912 6.26532308,8.83793835 C6.2647825,8.88981785 6.26300019,8.94420194 6.25996644,9.00025059 L5.01939023,9.07171631 L5.01939023,9.87695312 L5.82972397,10.5601663 C5.79454532,10.6368154 5.75592242,10.7223005 5.71038462,10.8283076 C5.64350769,10.983923 5.58083077,11.132646 5.55013846,11.2043691 C5.53775385,11.2335537 5.54109231,11.2657537 5.55832308,11.2924614 C5.60064615,11.3568614 5.69444615,11.4773691 5.85027692,11.5614768 C6.12230769,11.7084768 6.69490769,11.7616768 6.97910769,11.7627537 L6.98018462,11.7627537 C7.05223299,11.7624807 7.14283032,11.7588578 7.24237179,11.751206 L7.70388068,12.140316 L7.21526869,13.987703 Z M9.47933873,6.98368065 L9.35038125,7.32454693 C9.19540744,7.39765067 9.03309356,7.46373644 8.86436923,7.52215399 C8.82021538,7.5373386 8.81644615,7.59829245 8.85952308,7.61703091 C8.96387692,7.66312322 9.09806154,7.71546168 9.15018462,7.7432463 C9.1610296,7.74902625 9.17254537,7.75558061 9.18456289,7.76284558 L8.77115318,8.85558898 L7.69635901,8.91750451 C7.69549834,8.89042668 7.69495354,8.86386964 7.69472308,8.83793835 C7.69321538,8.68867681 7.70183077,8.55987681 7.721,8.47221527 C7.75104615,8.33361527 7.84484615,8.12243066 7.94543077,7.9663845 C8.08155385,7.75627681 8.32407692,7.57449219 8.48033846,7.49124604 C8.59793846,7.42835373 8.97130769,7.28846142 9.11809231,7.20726142 C9.2281393,7.14666593 9.3578428,7.06592997 9.47933873,6.98368065 Z M5.14047692,7.61713822 C5.18344615,7.59839976 5.17967692,7.53733822 5.13563077,7.52236899 C4.05870769,7.14943053 3.24261538,6.46396899 2.92976923,5.63516899 C2.92190769,5.61470745 2.90230769,5.60103053 2.88033846,5.6013536 C1.76798462,5.60307668 1.44953846,5.61039976 1.36112308,5.61330745 C1.34324615,5.61427668 1.32989231,5.63010745 1.33204615,5.6476613 C1.34410769,5.75147668 1.34066154,5.88910745 1.43230769,6.21067668 C1.50596923,6.46999976 1.65824615,6.71047668 1.82355385,6.91552283 C1.90981538,7.02256899 2.13036923,7.23924591 2.24269231,7.32690745 C2.34349231,7.4059536 2.49372308,7.50503053 2.60895385,7.56878437 C2.69941538,7.61864591 2.92944615,7.70490745 3.00181538,7.7433536 C3.09798462,7.79472283 3.24746154,7.9072613 3.33103077,8.03616899 C3.39306154,8.13201514 3.45067692,8.26243053 3.46941538,8.34804591 C3.48115385,8.40189206 3.48664615,8.48083053 3.48556923,8.57333822 C3.48341538,8.78936899 3.44615385,9.07669206 3.37195385,9.27376899 C3.28752308,9.4975536 3.24153846,9.57207668 3.14418462,9.79876899 C3.10293846,9.89461514 3.06406154,9.9861536 3.04510769,10.0307382 C3.03756923,10.0483998 3.03961538,10.0686459 3.05038462,10.0845844 C3.07623077,10.1241074 3.13406154,10.1986305 3.23023077,10.2503228 C3.39790769,10.3407844 3.7506,10.3733074 3.92527692,10.3745998 L3.92603077,10.3745998 C4.10103077,10.3734151 4.45372308,10.3407844 4.62118462,10.2503228 C4.71735385,10.1986305 4.7754,10.1241074 4.80124615,10.0845844 C4.8118,10.0686459 4.81416923,10.0483998 4.80630769,10.0307382 C4.78756923,9.9861536 4.7488,9.89472283 4.70744615,9.79876899 C4.61009231,9.57207668 4.56410769,9.4975536 4.47967692,9.27376899 C4.40547692,9.07669206 4.36821538,8.78936899 4.36595385,8.57333822 C4.36476923,8.48072283 4.37047692,8.40189206 4.38189231,8.34804591 C4.40063077,8.26253822 4.45835385,8.13212283 4.52038462,8.03616899 C4.60416923,7.9071536 4.75332308,7.79472283 4.84970769,7.7433536 C4.90193846,7.71556899 5.03569231,7.66323053 5.14047692,7.61713822 Z" transform="translate(1 1)"/>
    <polygon fill="#9AA7B0" points="11.498 14.163 8.718 15.956 9.564 12.758 7 10.668 10.303 10.484 11.498 7.4 12.693 10.484 15.996 10.668 13.432 12.758 14.278 15.956"/>
  </g>
</svg>
