<svg xmlns="http://www.w3.org/2000/svg" width="13" height="13" viewBox="0 0 13 13">
  <path fill="#6E6E6E" fill-rule="evenodd" d="M6.0000126,0.00986853147 C2.69174424,0.00986853147 0.00975104895,2.69147569 0.00975104895,5.99990772 C0.00975104895,9.30824748 2.69183652,11.9901315 6.0000126,11.9901315 C9.30846552,11.9901315 11.9903664,9.30824748 11.9903664,5.99990772 C11.9903664,2.69147569 9.30846552,0.00986853147 6.0000126,0.00986853147 Z M4.40668811,6.52878894 C4.31690385,6.56828269 4.20229743,6.61312839 4.15754372,6.63693537 C4.07495697,6.68095061 3.94715513,6.77728583 3.87536463,6.88783142 C3.82221383,6.97004855 3.77275406,7.08179371 3.75669808,7.15506015 C3.74691686,7.20119771 3.74202625,7.2687431 3.74304128,7.3480997 C3.74497907,7.53320358 3.77690646,7.77939359 3.84048442,7.94825706 C3.91282857,8.14000475 3.95223029,8.20385913 4.03564752,8.39809825 C4.07108139,8.48031538 4.10430064,8.55865695 4.12035661,8.59685885 C4.12709274,8.61199197 4.12506267,8.62933969 4.11601966,8.64299641 C4.09387349,8.67686138 4.04413689,8.74071576 3.96173469,8.78500781 C3.81824598,8.86251891 3.51604306,8.89047827 3.36609505,8.8914933 L3.36544912,8.8914933 C3.21577794,8.890386 2.91357502,8.86251891 2.76990176,8.78500781 C2.68749956,8.74071576 2.63794751,8.67686138 2.61580134,8.64299641 C2.60657377,8.62933969 2.60482053,8.61199197 2.61127983,8.59685885 C2.62752035,8.55865695 2.66083188,8.4802231 2.69617348,8.39809825 C2.77959071,8.20385913 2.81899243,8.14000475 2.89133658,7.94825706 C2.95491454,7.77939359 2.98684193,7.53320358 2.98868744,7.3480997 C2.9896102,7.26883537 2.98490414,7.20119771 2.97484609,7.15506015 C2.95879011,7.08170144 2.90942262,6.96995627 2.85627181,6.88783142 C2.78466587,6.7773781 2.6565872,6.68095061 2.574185,6.63693537 C2.51217573,6.60399316 2.31507484,6.53008079 2.23756325,6.48735741 C2.13882825,6.43273054 2.01010365,6.34783743 1.9237336,6.2801075 C1.82749004,6.20499555 1.63850941,6.01933802 1.56459658,5.92761655 C1.42295338,5.75192473 1.29247554,5.5458744 1.22935896,5.32367592 C1.15083234,5.04814242 1.15378517,4.93021482 1.14345029,4.84126161 C1.14160477,4.82622076 1.15304696,4.81265632 1.16836473,4.81182584 C1.24412307,4.80933442 1.51698232,4.80305971 2.47009801,4.80158331 C2.48892226,4.80130648 2.50571643,4.81302542 2.51245256,4.83055769 C2.78051346,5.54070699 3.47977871,6.12803811 4.4025357,6.44758684 C4.44027646,6.46041308 4.44350611,6.51273307 4.40668811,6.52878894 Z M6.75335141,8.54979865 C6.87063382,8.86122717 6.93467316,8.96448303 7.07022616,9.28024848 C7.12752937,9.41358602 7.18160293,9.54101795 7.2079015,9.60247318 C7.21851321,9.62747974 7.21565266,9.65507 7.20088855,9.67795423 C7.1646242,9.73313475 7.08388296,9.8363906 6.95036003,9.90845747 C6.71736389,10.034413 6.22654944,10.0799969 5.98303387,10.0809197 L5.98211112,10.0809197 C5.73859555,10.0799969 5.24796566,10.034413 5.01487724,9.90845747 C4.8813543,9.8363906 4.80098217,9.73313475 4.76471782,9.67795423 C4.74995371,9.65507 4.74709316,9.62747974 4.75770487,9.60247318 C4.78400344,9.54101795 4.8377079,9.41358602 4.89501111,9.28024848 C5.03065639,8.96448303 5.09469572,8.86122717 5.21207041,8.54979865 C5.31541919,8.27546473 5.36737041,7.87591348 5.37050778,7.57481977 C5.37179964,7.44683418 5.36414076,7.33656542 5.34799251,7.26145347 C5.32206304,7.1426954 5.24169091,6.9617439 5.15532085,6.82803725 C5.03905347,6.6480085 4.83106405,6.4922481 4.69735656,6.42091944 C4.59622239,6.36703077 4.2764871,6.24716539 4.15053077,6.17758996 C3.9901556,6.08928267 3.78115114,5.95105454 3.64098436,5.84143171 C3.4847616,5.71925945 3.17785262,5.41816575 3.05807877,5.26886461 C2.82794317,4.9833654 2.61589362,4.64877582 2.51337532,4.28825694 C2.3862194,3.84072263 2.39111001,3.64952859 2.37413129,3.50493348 C2.37127074,3.47992692 2.38981815,3.45805772 2.41454804,3.45713497 C2.56966349,3.45150619 3.23266439,3.43711127 5.9829416,3.43987952 C8.73294198,3.43711127 9.39594288,3.45150619 9.55096605,3.45713497 C9.57597277,3.45805772 9.59461246,3.47992692 9.59147509,3.50493348 C9.57449636,3.64952859 9.57938697,3.8408149 9.45232333,4.28825694 C9.34962048,4.64877582 9.1376632,4.9833654 8.9075276,5.26886461 C8.78766147,5.41807347 8.48093705,5.71916718 8.32471429,5.84143171 C8.18436295,5.95105454 7.97526622,6.08928267 7.81489105,6.17758996 C7.68911927,6.24716539 7.36919943,6.36703077 7.26843436,6.42091944 C7.13454232,6.4922481 6.92673745,6.6480085 6.81010097,6.82803725 C6.72391546,6.9617439 6.64354333,7.1426954 6.61779841,7.26145347 C6.60137333,7.33656542 6.59399128,7.44692646 6.59528314,7.57481977 C6.59795913,7.87591348 6.6500949,8.27546473 6.75335141,8.54979865 Z M10.4353364,5.92752461 C10.3616081,6.01924607 10.1727197,6.20490361 10.0764762,6.28001555 C9.98992155,6.34774549 9.86128923,6.4326386 9.76236968,6.48726547 C9.68485809,6.52998884 9.48784948,6.60390121 9.42602476,6.63684343 C9.34343801,6.68085866 9.21535934,6.77719388 9.14356884,6.88773947 C9.09060259,6.9699566 9.04105054,7.08170177 9.02517912,7.15496821 C9.01493652,7.20110577 9.01059956,7.26865115 9.01115321,7.34800775 C9.013091,7.53311164 9.04520295,7.77930165 9.10868863,7.94816511 C9.18112505,8.1399128 9.2204345,8.20376718 9.30385173,8.3980063 C9.33919332,8.48022343 9.3723203,8.55856501 9.38874537,8.59676691 C9.39520467,8.61190002 9.39345144,8.62924775 9.38422387,8.64290446 C9.36189315,8.67676943 9.31252565,8.74062381 9.23012345,8.78491587 C9.08626563,8.86242697 8.78443182,8.89038633 8.63448381,8.89140135 L8.63393016,8.89140135 C8.48398215,8.89029405 8.18177923,8.86242697 8.03829052,8.78491587 C7.95570377,8.74062381 7.90633627,8.67676943 7.88400555,8.64290446 C7.87477798,8.62924775 7.87302474,8.61190002 7.87948404,8.59676691 C7.89572456,8.55856501 7.92885154,8.48013116 7.96437768,8.3980063 C8.04779492,8.20376718 8.08710436,8.1399128 8.15935624,7.94816511 C8.22293419,7.77930165 8.25504614,7.53311164 8.2570762,7.34800775 C8.25762986,7.26874343 8.25310835,7.20110577 8.24323485,7.15496821 C8.22717888,7.08160949 8.17762683,6.96986433 8.12466057,6.88773947 C8.05296236,6.77728616 7.92497596,6.68085866 7.84238921,6.63684343 C7.79772777,6.61303645 7.68275225,6.56819074 7.5933371,6.52869699 C7.55642682,6.51264112 7.55965647,6.46041341 7.59748951,6.44740261 C8.52043105,6.12785389 9.21951174,5.54052277 9.48748037,4.83037347 C9.49430877,4.8128412 9.5112875,4.80112226 9.52983492,4.80139909 C10.4830429,4.80296776 10.7559021,4.8091502 10.8315682,4.81164162 C10.846886,4.81256437 10.8582359,4.82603654 10.8564826,4.84107739 C10.8464246,4.9300306 10.8491006,5.04786592 10.7706662,5.32349169 C10.7075497,5.54578245 10.5770718,5.75183279 10.4353364,5.92752461 Z" transform="translate(.5 .5)"/>
</svg>
