<svg xmlns="http://www.w3.org/2000/svg" width="16" height="16" viewBox="0 0 16 16">
  <path fill="#FEB672" d="M7,0.00904615385 C3.13901538,0.00904615385 0.00893846154,3.13869231 0.00893846154,6.99989231 C0.00893846154,10.8609846 3.13912308,13.9909538 7,13.9909538 C10.8612,13.9909538 13.9911692,10.8609846 13.9911692,6.99989231 C13.9911692,3.13869231 10.8612,0.00904615385 7,0.00904615385 Z M5.14047692,7.61713822 C5.03569231,7.66323053 4.90193846,7.71556899 4.84970769,7.7433536 C4.75332308,7.79472283 4.60416923,7.9071536 4.52038462,8.03616899 C4.45835385,8.13212283 4.40063077,8.26253822 4.38189231,8.34804591 C4.37047692,8.40189206 4.36476923,8.48072283 4.36595385,8.57333822 C4.36821538,8.78936899 4.40547692,9.07669206 4.47967692,9.27376899 C4.56410769,9.4975536 4.61009231,9.57207668 4.70744615,9.79876899 C4.7488,9.89472283 4.78756923,9.9861536 4.80630769,10.0307382 C4.81416923,10.0483998 4.8118,10.0686459 4.80124615,10.0845844 C4.7754,10.1241074 4.71735385,10.1986305 4.62118462,10.2503228 C4.45372308,10.3407844 4.10103077,10.3734151 3.92603077,10.3745998 L3.92527692,10.3745998 C3.7506,10.3733074 3.39790769,10.3407844 3.23023077,10.2503228 C3.13406154,10.1986305 3.07623077,10.1241074 3.05038462,10.0845844 C3.03961538,10.0686459 3.03756923,10.0483998 3.04510769,10.0307382 C3.06406154,9.9861536 3.10293846,9.89461514 3.14418462,9.79876899 C3.24153846,9.57207668 3.28752308,9.4975536 3.37195385,9.27376899 C3.44615385,9.07669206 3.48341538,8.78936899 3.48556923,8.57333822 C3.48664615,8.48083053 3.48115385,8.40189206 3.46941538,8.34804591 C3.45067692,8.26243053 3.39306154,8.13201514 3.33103077,8.03616899 C3.24746154,7.9072613 3.09798462,7.79472283 3.00181538,7.7433536 C2.92944615,7.70490745 2.69941538,7.61864591 2.60895385,7.56878437 C2.49372308,7.50503053 2.34349231,7.4059536 2.24269231,7.32690745 C2.13036923,7.23924591 1.90981538,7.02256899 1.82355385,6.91552283 C1.65824615,6.71047668 1.50596923,6.46999976 1.43230769,6.21067668 C1.34066154,5.88910745 1.34410769,5.75147668 1.33204615,5.6476613 C1.32989231,5.63010745 1.34324615,5.61427668 1.36112308,5.61330745 C1.44953846,5.61039976 1.76798462,5.60307668 2.88033846,5.6013536 C2.90230769,5.60103053 2.92190769,5.61470745 2.92976923,5.63516899 C3.24261538,6.46396899 4.05870769,7.14943053 5.13563077,7.52236899 C5.17967692,7.53733822 5.18344615,7.59839976 5.14047692,7.61713822 Z M7.8792,9.97581527 C8.01607692,10.3392768 8.09081538,10.4597845 8.24901538,10.8283076 C8.31589231,10.983923 8.379,11.132646 8.40969231,11.2043691 C8.42207692,11.2335537 8.41873846,11.2657537 8.40150769,11.2924614 C8.35918462,11.3568614 8.26495385,11.4773691 8.10912308,11.5614768 C7.8372,11.7084768 7.26438462,11.7616768 6.98018462,11.7627537 L6.97910769,11.7627537 C6.69490769,11.7616768 6.12230769,11.7084768 5.85027692,11.5614768 C5.69444615,11.4773691 5.60064615,11.3568614 5.55832308,11.2924614 C5.54109231,11.2657537 5.53775385,11.2335537 5.55013846,11.2043691 C5.58083077,11.132646 5.64350769,10.983923 5.71038462,10.8283076 C5.86869231,10.4597845 5.94343077,10.3392768 6.08041538,9.97581527 C6.20103077,9.65564604 6.26166154,9.18933835 6.26532308,8.83793835 C6.26683077,8.68856912 6.25789231,8.55987681 6.23904615,8.47221527 C6.20878462,8.33361527 6.11498462,8.12243066 6.01418462,7.9663845 C5.87849231,7.75627681 5.63575385,7.57449219 5.47970769,7.49124604 C5.36167692,7.42835373 4.98852308,7.28846142 4.84152308,7.20726142 C4.65435385,7.10419989 4.41043077,6.94287681 4.24684615,6.81493835 C4.06452308,6.67235373 3.70633846,6.32095373 3.56655385,6.14670758 C3.29796923,5.81350758 3.05049231,5.42301527 2.93084615,5.00226142 C2.78244615,4.47995373 2.78815385,4.25681527 2.76833846,4.08806142 C2.765,4.05887681 2.78664615,4.03335373 2.81550769,4.03227681 C2.99653846,4.02570758 3.77030769,4.00890758 6.98007692,4.01213835 C10.1895231,4.00890758 10.9632923,4.02570758 11.1442154,4.03227681 C11.1734,4.03335373 11.1951538,4.05887681 11.1914923,4.08806142 C11.1716769,4.25681527 11.1773846,4.48006142 11.0290923,5.00226142 C10.9092308,5.42301527 10.6618615,5.81350758 10.3932769,6.14670758 C10.2533846,6.32084604 9.89541538,6.67224604 9.71309231,6.81493835 C9.54929231,6.94287681 9.30526154,7.10419989 9.11809231,7.20726142 C8.97130769,7.28846142 8.59793846,7.42835373 8.48033846,7.49124604 C8.32407692,7.57449219 8.08155385,7.75627681 7.94543077,7.9663845 C7.84484615,8.12243066 7.75104615,8.33361527 7.721,8.47221527 C7.70183077,8.55987681 7.69321538,8.68867681 7.69472308,8.83793835 C7.69784615,9.18933835 7.75869231,9.65564604 7.8792,9.97581527 Z M12.1763385,6.91541553 C12.0902923,7.02246168 11.8698462,7.2391386 11.7575231,7.32680014 C11.6565077,7.4058463 11.5063846,7.50492322 11.3909385,7.56867706 C11.3004769,7.6185386 11.0705538,7.70480014 10.9984,7.7432463 C10.9020154,7.79461553 10.7525385,7.9070463 10.6687538,8.03606168 C10.6069385,8.13201553 10.5491077,8.26243091 10.5305846,8.3479386 C10.5186308,8.40178476 10.5135692,8.48061553 10.5142154,8.57323091 C10.5164769,8.78926168 10.5539538,9.07658476 10.6280462,9.27366168 C10.7125846,9.4974463 10.7584615,9.57196937 10.8558154,9.79866168 C10.8970615,9.89461553 10.9357231,9.9860463 10.9548923,10.0306309 C10.9624308,10.0482924 10.9603846,10.0685386 10.9496154,10.0844771 C10.9235538,10.1240001 10.8659385,10.1985232 10.7697692,10.2502155 C10.6018769,10.3406771 10.2496154,10.3733078 10.0746154,10.3744924 L10.0739692,10.3744924 C9.89896923,10.3732001 9.54627692,10.3406771 9.37881538,10.2502155 C9.28243077,10.1985232 9.22481538,10.1240001 9.19875385,10.0844771 C9.18798462,10.0685386 9.18593846,10.0482924 9.19347692,10.0306309 C9.21243077,9.9860463 9.25109231,9.89450783 9.29255385,9.79866168 C9.38990769,9.57196937 9.43578462,9.4974463 9.52010769,9.27366168 C9.59430769,9.07658476 9.63178462,8.78926168 9.63415385,8.57323091 C9.6348,8.48072322 9.62952308,8.40178476 9.618,8.3479386 C9.59926154,8.26232322 9.54143077,8.13190783 9.47961538,8.03606168 C9.39593846,7.90715399 9.24656923,7.79461553 9.15018462,7.7432463 C9.09806154,7.71546168 8.96387692,7.66312322 8.85952308,7.61703091 C8.81644615,7.59829245 8.82021538,7.5373386 8.86436923,7.52215399 C9.94150769,7.14921553 10.7573846,6.46375399 11.0701231,5.63495399 C11.0780923,5.61449245 11.0979077,5.60081553 11.1195538,5.6011386 C12.2320154,5.60296937 12.5504615,5.61018476 12.6387692,5.61309245 C12.6566462,5.61416937 12.6698923,5.62989245 12.6678462,5.6474463 C12.6561077,5.75126168 12.6592308,5.88878476 12.5676923,6.21046168 C12.4940308,6.46989245 12.3417538,6.71036937 12.1763385,6.91541553 Z" transform="translate(1 1)"/>
</svg>
