<svg xmlns="http://www.w3.org/2000/svg" width="16" height="16" viewBox="0 0 16 16">
  <g fill="none" fill-rule="evenodd">
    <polygon fill="#F26522" fill-opacity=".7" points="1 16 16 16 16 9 1 9"/>
    <polygon fill="#9AA7B0" fill-opacity=".8" points="7 1 3 5 7 5"/>
    <polygon fill="#9AA7B0" fill-opacity=".8" points="8 1 8 6 3 6 3 8 13 8 13 1"/>
    <path fill="#231F20" fill-opacity=".7" d="M1.9,2.5 C2.564,2.5 3,2.38439941 3,1.75 C3,1.11560059 2.557,1 1.9,1 L1,1 L1,2.5 L1.9,2.5 Z M0,0 L1.971,0 C3.142,0 4,0.642 4,1.65 C4,3.28582764 2.971,3.5 1.872,3.5 L1,3.5 L1,5 L0,5 L0,0 Z" transform="translate(11 10)"/>
    <path fill="#231F20" fill-opacity=".7" d="M0.972767969,1.50152588 C0.972767969,1.13305664 1.284,1 1.845,1 C1.85033333,1 2.23533333,1 3,1 L3,0 C2.26266667,0 1.88266667,0 1.86,0 C0.778,0 0,0.45916748 0,1.45 C0,2.31452637 0.419555664,2.69049072 1.47125244,2.91607666 C2.24158869,3.08131157 2.496155,3.22862939 2.496155,3.548 C2.496155,3.86737061 2.13842773,4 1.47125244,4 C1.46058577,4 1.07016829,4 0.3,4 L0.3,5 C1.07550163,5 1.46591911,5 1.47125244,5 C3.5,5 3.5,4 3.5,3.548 C3.5,2.91607666 3.02026367,2.42071533 2.15869141,2.14685059 C1.29711914,1.87298584 0.972767969,1.86999512 0.972767969,1.50152588 Z" transform="translate(7 10)"/>
    <path fill="#231F20" fill-opacity=".7" d="M2.51990608,5.016 C1.00747514,5.016 0.013,3.93865193 0.013,2.52981215 L0.013,2.516 C0.013,1.16240884 1.0489116,0.016 2.50609392,0.016 C3.34863536,0.016 3.86659116,0.25080663 4.36382873,0.672077348 L3.8251547,1.31434254 C3.45222652,1.00356906 3.08620442,0.803292818 2.47156354,0.803292818 C1.58067956,0.803292818 0.903883978,1.57677348 0.903883978,2.50218785 L0.903883978,2.516 C0.903883978,3.51047514 1.55996133,4.24251934 2.54753039,4.24251934 C3.00333149,4.24251934 3.41769613,4.09749171 3.71465746,3.87649724 L3.71465746,2.97870718 L2.47846961,2.97870718 L2.47846961,2.23285083 L4.53648066,2.23285083 L4.53648066,4.26323757 C4.05996133,4.67069613 3.37625967,5.016 2.51990608,5.016 Z" transform="translate(2 10)"/>
  </g>
</svg>
