<svg xmlns="http://www.w3.org/2000/svg" width="16" height="16" viewBox="0 0 16 16">
  <g fill="none" fill-rule="evenodd">
    <polygon fill="#9AA7B0" fill-opacity=".8" points="1 13 3 13 3 3 1 3"/>
    <polygon fill="#62B543" points="4 13 6 13 6 3 4 3"/>
    <path fill="#40B6E0" d="M10,6.20703249 L10,3 L12,3 L12,6.02242151 C11.835319,6.00758131 11.6685448,6 11.5,6 C10.9799881,6 10.4768318,6.07216716 10,6.20703249 Z"/>
    <path fill="#9AA7B0" fill-opacity=".8" d="M7,8.33692087 L7,0.999 L9,0.999 L9,6.59970959 C8.20018089,7.00857314 7.51365933,7.60749845 7,8.33692087 Z M13,6.20703249 L13,5 L15,5 L15,7.25716211 C14.4209679,6.77896226 13.7423893,6.41700712 13,6.20703249 Z"/>
    <path fill="#FEB672" fill-rule="nonzero" d="M4.5,0.00581538462 C2.01793846,0.00581538462 0.00574615385,2.01773077 0.00574615385,4.49993077 C0.00574615385,6.98206154 2.01800769,8.99418462 4.5,8.99418462 C6.9822,8.99418462 8.99432308,6.98206154 8.99432308,4.49993077 C8.99432308,2.01773077 6.9822,0.00581538462 4.5,0.00581538462 Z M3.30459231,4.89673171 C3.23723077,4.92636248 3.15124615,4.96000863 3.11766923,4.97787017 C3.05570769,5.01089325 2.95982308,5.08317017 2.90596154,5.16610863 C2.86608462,5.22779325 2.82897692,5.31163171 2.81693077,5.36660094 C2.80959231,5.40121633 2.80592308,5.45189325 2.80668462,5.51143171 C2.80813846,5.65030863 2.83209231,5.83501633 2.87979231,5.96170863 C2.93406923,6.10557017 2.96363077,6.15347787 3.02621538,6.29920863 C3.0528,6.36089325 3.07772308,6.41967017 3.08976923,6.44833171 C3.09482308,6.45968556 3.0933,6.47270094 3.08651538,6.4829471 C3.0699,6.50835479 3.03258462,6.55626248 2.97076154,6.58949325 C2.86310769,6.6476471 2.63637692,6.66862402 2.52387692,6.66938556 L2.52339231,6.66938556 C2.4111,6.66855479 2.18436923,6.6476471 2.07657692,6.58949325 C2.01475385,6.55626248 1.97757692,6.50835479 1.96096154,6.4829471 C1.95403846,6.47270094 1.95272308,6.45968556 1.95756923,6.44833171 C1.96975385,6.41967017 1.99474615,6.36082402 2.02126154,6.29920863 C2.08384615,6.15347787 2.11340769,6.10557017 2.16768462,5.96170863 C2.21538462,5.83501633 2.23933846,5.65030863 2.24072308,5.51143171 C2.24141538,5.45196248 2.23788462,5.40121633 2.23033846,5.36660094 C2.21829231,5.31156248 2.18125385,5.22772402 2.14137692,5.16610863 C2.08765385,5.0832394 1.99156154,5.01089325 1.92973846,4.97787017 C1.88321538,4.95315479 1.73533846,4.89770094 1.67718462,4.8656471 C1.60310769,4.82466248 1.50653077,4.76097017 1.44173077,4.71015479 C1.36952308,4.65380094 1.22773846,4.51450863 1.17228462,4.44569325 C1.06601538,4.31387787 0.968123077,4.15928556 0.920769231,3.99257787 C0.861853846,3.78585479 0.864069231,3.69737787 0.856315385,3.6306394 C0.854930769,3.61935479 0.863515385,3.60917787 0.875007692,3.60855479 C0.931846154,3.60668556 1.13656154,3.60197787 1.85164615,3.60087017 C1.86576923,3.60066248 1.87836923,3.60945479 1.88342308,3.62260863 C2.08453846,4.15540863 2.60916923,4.59606248 3.30147692,4.83580863 C3.32979231,4.84543171 3.33221538,4.88468556 3.30459231,4.89673171 Z M5.0652,6.4130241 C5.15319231,6.64667795 5.20123846,6.72414718 5.30293846,6.96105487 C5.34593077,7.06109333 5.3865,7.15670103 5.40623077,7.20280872 C5.41419231,7.22157026 5.41204615,7.24227026 5.40096923,7.25943949 C5.37376154,7.30083949 5.31318462,7.37830872 5.21300769,7.43237795 C5.0382,7.52687795 4.66996154,7.56107795 4.48726154,7.56177026 L4.48656923,7.56177026 C4.30386923,7.56107795 3.93576923,7.52687795 3.76089231,7.43237795 C3.66071538,7.37830872 3.60041538,7.30083949 3.57320769,7.25943949 C3.56213077,7.24227026 3.55998462,7.22157026 3.56794615,7.20280872 C3.58767692,7.15670103 3.62796923,7.06109333 3.67096154,6.96105487 C3.77273077,6.72414718 3.82077692,6.64667795 3.90883846,6.4130241 C3.98637692,6.20720103 4.02535385,5.90743179 4.02770769,5.68153179 C4.02867692,5.58550872 4.02293077,5.50277795 4.01081538,5.4464241 C3.99136154,5.3573241 3.93106154,5.22156256 3.86626154,5.12124718 C3.77903077,4.98617795 3.62298462,4.86931641 3.52266923,4.81580103 C3.44679231,4.77537026 3.20690769,4.68543949 3.11240769,4.63323949 C2.99208462,4.56698564 2.83527692,4.46327795 2.73011538,4.38103179 C2.61290769,4.28937026 2.38264615,4.06347026 2.29278462,3.95145487 C2.12012308,3.73725487 1.96103077,3.4862241 1.88411538,3.21573949 C1.78871538,2.87997026 1.79238462,2.7365241 1.77964615,2.62803949 C1.7775,2.60927795 1.79141538,2.59287026 1.80996923,2.59217795 C1.92634615,2.58795487 2.42376923,2.57715487 4.48719231,2.57923179 C6.55040769,2.57715487 7.04783077,2.58795487 7.16413846,2.59217795 C7.1829,2.59287026 7.19688462,2.60927795 7.19453077,2.62803949 C7.18179231,2.7365241 7.18546154,2.88003949 7.09013077,3.21573949 C7.01307692,3.4862241 6.85405385,3.73725487 6.68139231,3.95145487 C6.59146154,4.06340103 6.36133846,4.28930103 6.24413077,4.38103179 C6.13883077,4.46327795 5.98195385,4.56698564 5.86163077,4.63323949 C5.76726923,4.68543949 5.52724615,4.77537026 5.45164615,4.81580103 C5.35119231,4.86931641 5.19528462,4.98617795 5.10777692,5.12124718 C5.04311538,5.22156256 4.98281538,5.3573241 4.9635,5.4464241 C4.95117692,5.50277795 4.94563846,5.58557795 4.94660769,5.68153179 C4.94861538,5.90743179 4.98773077,6.20720103 5.0652,6.4130241 Z M7.82764615,4.44562427 C7.77233077,4.51443965 7.63061538,4.65373196 7.55840769,4.71008581 C7.49346923,4.76090119 7.39696154,4.8245935 7.32274615,4.86557811 C7.26459231,4.89763196 7.11678462,4.95308581 7.0704,4.97780119 C7.00843846,5.01082427 6.91234615,5.08310119 6.85848462,5.16603965 C6.81874615,5.22772427 6.78156923,5.31156273 6.76966154,5.36653196 C6.76197692,5.40114734 6.75872308,5.45182427 6.75913846,5.51136273 C6.76059231,5.65023965 6.78468462,5.83494734 6.83231538,5.96163965 C6.88666154,6.10550119 6.91615385,6.15340888 6.97873846,6.29913965 C7.00525385,6.36082427 7.03010769,6.41960119 7.04243077,6.44826273 C7.04727692,6.45961657 7.04596154,6.47263196 7.03903846,6.48287811 C7.02228462,6.50828581 6.98524615,6.5561935 6.92342308,6.58942427 C6.81549231,6.64757811 6.58903846,6.66855504 6.47653846,6.66931657 L6.47612308,6.66931657 C6.36362308,6.66848581 6.13689231,6.64757811 6.02923846,6.58942427 C5.96727692,6.5561935 5.93023846,6.50828581 5.91348462,6.48287811 C5.90656154,6.47263196 5.90524615,6.45961657 5.91009231,6.44826273 C5.92227692,6.41960119 5.94713077,6.36075504 5.97378462,6.29913965 C6.03636923,6.15340888 6.06586154,6.10550119 6.12006923,5.96163965 C6.16776923,5.83494734 6.19186154,5.65023965 6.19338462,5.51136273 C6.1938,5.4518935 6.19040769,5.40114734 6.183,5.36653196 C6.17095385,5.3114935 6.13377692,5.22765504 6.09403846,5.16603965 C6.04024615,5.08317042 5.94422308,5.01082427 5.88226154,4.97780119 C5.84875385,4.95993965 5.76249231,4.9262935 5.69540769,4.89666273 C5.66771538,4.88461657 5.67013846,4.84543196 5.69852308,4.83567042 C6.39096923,4.59592427 6.91546154,4.15527042 7.11650769,3.62247042 C7.12163077,3.60931657 7.13436923,3.60052427 7.14828462,3.60073196 C7.86343846,3.60190888 8.06815385,3.60654734 8.12492308,3.60841657 C8.13641538,3.60910888 8.14493077,3.61921657 8.14361538,3.63050119 C8.13606923,3.69723965 8.13807692,3.78564734 8.07923077,3.99243965 C8.03187692,4.15921657 7.93398462,4.31380888 7.82764615,4.44562427 Z" transform="translate(7 7)"/>
  </g>
</svg>
