<svg xmlns="http://www.w3.org/2000/svg" width="16" height="16" viewBox="0 0 16 16">
  <g fill="none" fill-rule="evenodd" opacity=".9" transform="translate(1 1)">
    <path fill="#A8ADB2" d="M7.042,10.96 C4.882,10.96 3.124,9.202 3.124,7.042 C3.124,4.882 4.882,3.124 7.042,3.124 C8.825,3.124 10.333,4.322 10.805,5.955 L12.321,5.955 C11.816,3.502 9.642,1.652 7.042,1.652 C4.07,1.652 1.652,4.07 1.652,7.042 C1.652,10.014 4.07,12.432 7.042,12.432 C9.642,12.432 11.816,10.582 12.321,8.13 L10.805,8.13 C10.333,9.762 8.825,10.96 7.042,10.96"/>
    <path fill="#A8ADB2" d="M4.4004,9.6826 C5.0774,10.3596 6.0114,10.7786 7.0424,10.7786 L7.0424,9.2166 C6.4414,9.2166 5.8974,8.9726 5.5044,8.5786 L4.4004,9.6826 Z"/>
    <path fill="#F38B00" d="M3.3057,7.042 C3.3057,7.576 3.4187,8.085 3.6217,8.546 L5.0507,7.917 C4.9327,7.649 4.8677,7.354 4.8677,7.042 C4.8677,5.841 5.8407,4.867 7.0407,4.867 L7.0407,3.306 C4.9817,3.306 3.3057,4.981 3.3057,7.042"/>
    <path fill="#A8ADB2" d="M8.3965,3.5596 L7.8305,5.0156 C8.2925,5.1966 8.6785,5.5296 8.9235,5.9546 L10.6165,5.9546 C10.2825,4.8576 9.4575,3.9736 8.3965,3.5596"/>
    <path fill="#F38B00" d="M7.8301 9.0674L8.3961 10.5234C9.4571 10.1104 10.2821 9.2254 10.6171 8.1294L8.9251 8.1294C8.6791 8.5544 8.2931 8.8874 7.8301 9.0674M12.5059 5.9551L13.9999 5.9551C13.6099 3.4491 11.8949 1.3781 9.5949.4791L9.0619 1.8521C10.8099 2.5351 12.1329 4.0751 12.5059 5.9551"/>
    <path fill="#A8ADB2" d="M7.042,1.4717 L7.042,-0.0003 C4.059,-0.0003 1.504,1.8647 0.48,4.4887 L1.851,5.0227 C2.661,2.9467 4.683,1.4717 7.042,1.4717"/>
    <path fill="#F38B00" d="M1.4717,7.042 L-0.0003,7.042 C-0.0003,10.001 1.8347,12.538 4.4267,13.579 L4.9737,12.213 C2.9227,11.39 1.4717,9.383 1.4717,7.042"/>
    <path fill="#A8ADB2" d="M7.042,12.6123 L7.042,14.0843 C10.555,14.0843 13.476,11.4983 14,8.1293 L12.506,8.1293 C11.998,10.6823 9.741,12.6123 7.042,12.6123"/>
  </g>
</svg>
