<svg xmlns="http://www.w3.org/2000/svg" width="16" height="16" viewBox="0 0 16 16">
  <defs>
    <radialGradient id="arquillian-a" cx="39.309%" cy="70.379%" r="120.445%" fx="39.309%" fy="70.379%" gradientTransform="matrix(1 0 0 .96863 0 .022)">
      <stop offset="0%" stop-color="#FFF"/>
      <stop offset="22.18%" stop-color="#FCFDF6"/>
      <stop offset="57.65%" stop-color="#F4F7DF"/>
      <stop offset="100%" stop-color="#E7EEBB"/>
    </radialGradient>
    <linearGradient id="arquillian-b" x1="48.347%" x2="72.849%" y1="114.591%" y2="-835.294%">
      <stop offset="0%" stop-color="#4A5B01"/>
      <stop offset="17.35%" stop-color="#5C7101"/>
      <stop offset="54.02%" stop-color="#7E9B02"/>
      <stop offset="82.83%" stop-color="#93B502"/>
      <stop offset="100%" stop-color="#9BBF02"/>
    </linearGradient>
    <linearGradient id="arquillian-c" x1="48.274%" x2="72.952%" y1="116.669%" y2="-822.817%">
      <stop offset="0%" stop-color="#4A5B01"/>
      <stop offset="17.35%" stop-color="#5C7101"/>
      <stop offset="54.02%" stop-color="#7E9B02"/>
      <stop offset="82.83%" stop-color="#93B502"/>
      <stop offset="100%" stop-color="#9BBF02"/>
    </linearGradient>
  </defs>
  <g fill="none" fill-rule="evenodd" transform="translate(1 .8)">
    <path fill="#546E7A" d="M6.98341232,0 C3.1357346,0 0.00490995261,3.13016114 0.00490995261,6.97797156 C0.00490995261,10.9252417 3.20062559,14.259564 6.98341232,14.259564 C10.7658673,14.259564 13.9614502,10.9252417 13.9614502,6.97797156 C13.9614502,3.13016114 10.83109,0 6.98341232,0 Z"/>
    <path fill="#CCD584" d="M1.43602844,7.59821801 C1.43602844,10.5471754 3.82624645,13.2495735 6.77540284,13.2495735 C9.72409479,13.2495735 12.1138483,10.5471754 12.1138483,7.59821801 C12.1138483,4.64906161 9.72409479,2.25864455 6.77540284,2.25864455 C3.82624645,2.25864455 1.43602844,4.64906161 1.43602844,7.59821801 Z"/>
    <path fill="url(#arquillian-a)" d="M1.83725118,7.83860664 C1.83725118,10.498872 3.99424645,12.9683791 6.65451185,12.9683791 C9.3147109,12.9683791 11.472237,10.498872 11.472237,7.83860664 C11.472237,5.17834123 9.31464455,3.02134597 6.65451185,3.02134597 C3.99424645,3.02134597 1.83725118,5.17834123 1.83725118,7.83860664 Z"/>
    <path fill="#F7FAEF" d="M7.04458768 8.7267109C8.69147867 7.75135545 9.60963981 8.16412322 9.60963981 8.16412322 10.4863318 8.67024645 10.1217346 9.62357346 10.1217346 9.62357346 9.15308057 12.5193839 6.85190521 11.0305403 6.85190521 11.0305403 6.85190521 11.0305403 6.54602844 10.8506635 6.39116588 10.7099336 6.1087109 9.47634123 6.60541232 8.98693839 7.04458768 8.7267109zM4.93748815 9.12229384C3.75306161 8.13320379 2.96899526 8.34267299 2.96899526 8.34267299 2.20682464 8.63236019 2.37256872 9.43799052 2.37256872 9.43799052 2.76874882 11.8686825 4.79357346 10.9806445 4.79357346 10.9806445 4.79357346 10.9806445 5.06023697 10.8771374 5.20083412 10.7857725 5.58580095 9.84073934 5.25398104 9.38670142 4.93748815 9.12229384z"/>
    <path fill="#DFE677" d="M9.92792417 8.55738389C9.92792417 8.55738389 10.4526256 10.7656019 8.20678673 10.8762749 8.20678673 10.8762749 7.32836967 10.9039431 6.5191564 10.7485498L9.92792417 8.55738389zM2.58774408 8.89517536C2.58774408 8.89517536 2.00763981 10.5276682 3.81589573 10.7324929 3.81589573 10.7324929 4.38790521 10.7996398 5.12393365 10.7784739L2.58774408 8.89517536z"/>
    <path fill="#384C54" d="M2.60393365 8.8436872L2.65037915 8.82099526C3.47790521 8.54325118 4.2747109 8.87321327 4.54635071 9.03053081 5.10409479 9.35432227 5.33459716 10.0627488 5.24369668 10.6484929 5.22830332 10.7454976 5.188891 10.7880948 5.12393365 10.7785403L5.04524171 10.7070806C4.94047393 10.6121991 4.73584834 10.5473744 4.43441706 10.5209668 2.96123223 10.3025403 2.43991469 9.84538389 2.58774408 8.89517536L2.60393365 8.8436872zM9.92792417 8.55738389L9.87185782 8.52832227C8.69565877 8.18276777 7.74286256 8.45998104 7.38038863 8.63143128 6.63772512 8.98362085 6.32733649 9.81638863 6.38108057 10.57 6.38983886 10.6950047 6.43581991 10.7545213 6.51909005 10.7485498L6.60196209 10.697128C7.00112796 10.4875261 7.26055924 10.4675545 7.45105213 10.4656967 9.38364929 10.2933839 10.027981 9.83403791 9.94205687 8.62433175L9.92792417 8.55738389z"/>
    <path fill="url(#arquillian-b)" d="M5.496891,11.5360664 L5.50591469,11.5393175 L5.6792891,11.4426445 L5.72606635,11.4013081 C5.78491943,11.3297156 5.79447393,11.2563318 5.75366825,11.1821517 C5.74670142,11.1707393 5.7397346,11.1674882 5.73150711,11.1718009 L5.61207583,11.2374882 C5.46530806,11.3200948 5.42450237,11.4201517 5.49058768,11.5398483 L5.496891,11.5360664 Z"/>
    <path fill="url(#arquillian-c)" d="M5.97129858,11.1676872 C5.90309005,11.2865213 5.94236967,11.3877725 6.08800948,11.4718389 L6.20637915,11.539782 C6.21414218,11.5440284 6.22190521,11.54091 6.22887204,11.5294976 C6.27054028,11.4564455 6.26251185,11.3833934 6.20538389,11.3102749 L6.15787678,11.2684076 L5.98655924,11.1687488 L5.97746919,11.1712701 L5.97129858,11.1676872 Z"/>
  </g>
</svg>
