<svg xmlns="http://www.w3.org/2000/svg" width="40" height="40" viewBox="0 0 40 40">
  <g fill="none" transform="translate(4 4)">
    <polygon fill="#2266CF" points="0 0 15.721 0 15.721 17.95"/>
    <polygon fill="#64B8FF" points="15.721 0 24.834 10.439 24.401 10.941 15.705 10.941"/>
    <polygon fill="#248BF5" points="21.24 6.307 22.963 4.841 28.407 4.841 28.407 6.377 24.834 10.439"/>
    <polygon fill="#2266CF" points="28.407 4.841 29.74 4.848 28.407 6.377"/>
    <polygon fill="#E3F3FF" points="28.407 6.377 24.401 10.941 28.404 10.941"/>
    <polygon fill="#91CCFF" points="28.404 10.941 15.705 10.941 15.705 21.534"/>
    <polygon fill="#248BF5" points="15.721 17.95 15.721 21.538 13.759 21.538 13.759 19.742 11.624 21.486 11.624 18.326 7.778 21.486 7.778 19.721 5.591 21.486 2.78 21.486 12.121 13.846"/>
    <polygon fill="#64B8FF" points="5.591 21.486 7.778 19.721 7.778 21.486 11.624 18.326 11.624 21.486 13.759 19.742 13.759 21.538"/>
    <polygon fill="#64B8FF" points="19.972 17.956 26.598 12.472 31.364 17.946"/>
    <polygon fill="#2266CF" points="17.495 20.004 19.972 17.956 31.354 17.956 31.354 35.859"/>
  </g>
</svg>
