<svg xmlns="http://www.w3.org/2000/svg" width="16" height="16" viewBox="0 0 16 16">
  <path fill="#C00" fill-rule="evenodd" d="M11.7009278 14.1235268C11.7009278 13.1209304 10.8896178 12.3063441 9.88941291 12.3063441 8.88725926 12.3063441 8.07646899 13.1209304 8.07646899 14.1235268 8.07646899 15.1279484 8.88725926 15.9408406 9.88941291 15.9408406 10.8896178 15.9408406 11.7009278 15.1279484 11.7009278 14.1235268zM6.88697989 13.5502425C6.88697989 12.6619115 6.16816677 11.9412656 5.28163725 11.9412656 4.39523725 11.9412656 3.67694392 12.6617812 3.67694392 13.5502425 3.67694392 14.4393549 4.39510688 15.1602616 5.28163725 15.1602616 6.16816677 15.1602616 6.88697989 14.4393549 6.88697989 13.5502425zM3.26044106 10.6422544C3.26044106 9.84004656 2.61295238 9.1893672 1.81190434 9.1893672 1.0105981 9.1893672.362068995 9.84004656.362068995 10.6422544.362068995 11.446676 1.0105981 12.0973553 1.81190434 12.0973553 2.61282201 12.0973553 3.26044106 11.446676 3.26044106 10.6422544zM2.58761905 6.5947327C2.58761905 5.87734434 2.00885418 5.29754413 1.29432889 5.29754413.579933968 5.29754413 0 5.87721397 0 6.5947327 0 7.31133884.579933968 7.89296169 1.29432889 7.89296169 2.00885418 7.89296169 2.58761905 7.31120762 2.58761905 6.5947327zM4.40147302 2.96010497C4.40147302 2.35828571 3.91351704 1.87008169 3.31383619 1.87008169 2.71376508 1.87008169 2.22658963 2.35828571 2.22658963 2.96010497 2.22658963 3.56244487 2.71376508 4.05025862 3.31383619 4.05025862 3.91351704 4.05025862 4.40147302 3.56244487 4.40147302 2.96010497zM7.50640762 1.35034751C7.50640762.805726138 7.06664974.363906032 6.52348106.363906032 5.9804419.363906032 5.53990603.805726138 5.53990603 1.35034751 5.53990603 1.89587979 5.98057228 2.33769989 6.52348106 2.33769989 7.06678011 2.33769989 7.50640762 1.89587979 7.50640762 1.35034751zM10.7686679.830872381C10.7686679.371983915 10.3985439 0 9.94059852 0 9.48382222 0 9.11213968.371983915 9.11213968.830872381 9.11213968 1.29028233 9.48382222 1.66213587 9.94059852 1.66213587 10.3985439 1.66213587 10.7686679 1.29028233 10.7686679.830872381z" transform="translate(2)"/>
</svg>
