<svg xmlns="http://www.w3.org/2000/svg" width="16" height="16" viewBox="0 0 16 16">
  <g fill="none" fill-rule="evenodd">
    <polygon fill="#9AA7B0" fill-opacity=".8" points="7 1 3 5 7 5"/>
    <path fill="#9AA7B0" fill-opacity=".8" d="M13,8.05025253 L11.9497475,7 L7,11.9497475 L10.0502525,15 L3,15 L3,6 L8,6 L8,1 L13,1 L13,8.05025253 Z"/>
    <g transform="translate(8 8)">
      <polygon fill="#1A9D29" points="5.554 1.735 6.804 1.735 6.804 5.235 5.554 5.235" transform="rotate(-45 6.18 3.485)"/>
      <polygon fill="#A274B6" points=".232 1.939 5.232 1.939 5.232 3.439 .232 3.439" transform="rotate(-45 2.732 2.69)"/>
      <polygon fill="#CD9641" points="2.598 3.65 5.931 3.65 5.931 7.15 2.598 7.15" transform="rotate(-45 4.264 5.4)"/>
    </g>
  </g>
</svg>
