<svg xmlns="http://www.w3.org/2000/svg" width="13" height="13" viewBox="0 0 13 13">
  <path fill="#6E6E6E" fill-rule="evenodd" d="M12.9048242,6.73967273 C12.9322424,6.83327273 12.946503,6.92892121 12.9467394,7.02480606 C12.9467394,7.06364848 12.9445333,7.10343636 12.9398848,7.14062424 C12.9234182,7.27921212 12.8729152,7.41646061 12.7820727,7.53921212 C12.6967455,7.65085455 12.5746242,7.74571515 12.4328848,7.79984242 L5.9910303,10.3258606 C5.83857576,10.3854242 5.67918788,10.414497 5.52232121,10.414497 C5.50971515,10.414497 5.49253939,10.414497 5.46772121,10.4138667 C5.29155152,10.4059091 5.12231515,10.3617879 4.96962424,10.2894606 C4.81118182,10.2155576 4.67101818,10.1108485 4.55149697,9.98108485 C4.5214,9.94815152 4.49303636,9.91285455 4.46601212,9.87629697 C4.4453697,9.93704242 4.42228485,9.99707879 4.39407879,10.0541212 C4.31529091,10.213903 4.2074303,10.3576909 4.07593333,10.479497 C3.94183636,10.6034303 3.78213333,10.7047515 3.59706061,10.7760545 C3.43861818,10.8338848 3.27245455,10.8666606 3.10479394,10.8666606 L3.10227273,10.8666606 C3.08549091,10.8666606 3.06587273,10.8666606 3.04806667,10.8654788 C2.86165455,10.8598061 2.68233333,10.8145818 2.52223636,10.7378424 C2.35347273,10.6589758 2.20881818,10.544103 2.09504848,10.4087455 C1.97410909,10.2671636 1.88649697,10.097297 1.83851515,9.91348485 L0.0640545455,3.17365455 C0.0476666667,3.10786667 0.0394727273,3.04081818 0.0397090909,2.97613333 C0.0394727273,2.89387879 0.0521575758,2.81375152 0.0759515152,2.73677576 C0.119442424,2.59818788 0.196890909,2.4810303 0.286866667,2.38719394 C0.382909091,2.28650303 0.494787879,2.21141818 0.616515152,2.15146061 C0.736587879,2.09433939 0.870212121,2.05281818 1.00966667,2.03272727 C1.08553939,2.02067273 1.1596,2.01515758 1.23192727,2.01515758 C1.29795152,2.01515758 1.36295152,2.01972727 1.42582424,2.02839394 C1.56157576,2.04588485 1.68873939,2.08315152 1.80400606,2.13428485 C1.86687879,2.16193939 1.92801818,2.19550303 1.98608485,2.23442424 C1.97489697,2.18368485 1.96725455,2.13278788 1.96749091,2.08212727 C1.96725455,2.03162424 1.9727697,1.98253939 1.98230303,1.94007273 C2.00987879,1.80755152 2.07322424,1.70063636 2.14886061,1.61270909 C2.22827879,1.52344242 2.32353333,1.45607879 2.42225455,1.40872727 C2.52404848,1.35822424 2.63687273,1.32489697 2.7501697,1.31016364 C2.80855152,1.30118182 2.86551515,1.29787273 2.92066667,1.29787273 C2.98180606,1.29787273 3.04223636,1.3026 3.09620606,1.31063636 C3.20824242,1.32655152 3.31452727,1.35696364 3.41742424,1.40132121 C3.44610303,1.41455758 3.47383636,1.43133939 3.50188485,1.44686061 C3.50275152,1.42361818 3.50393333,1.40124242 3.50700606,1.3799697 C3.52331515,1.27092727 3.56987879,1.16897576 3.63842424,1.08286061 C3.70539394,1.0003697 3.78654545,0.940569697 3.88053939,0.893060606 C3.96381818,0.853036364 4.05655152,0.82530303 4.15590303,0.812145455 C4.20191515,0.806078788 4.24469697,0.804187879 4.28487879,0.804187879 C4.33892727,0.804187879 4.39179394,0.808363636 4.44812727,0.816636364 C4.5376303,0.831054545 4.62350909,0.855951515 4.70655152,0.891642424 C4.7417697,0.906848485 4.77478182,0.925206061 4.80755758,0.944193939 C4.82575758,0.872812121 4.85758788,0.807418182 4.89887273,0.750769697 C4.9588303,0.671824242 5.02981818,0.616357576 5.11435758,0.572945455 C5.18944242,0.535521212 5.27201212,0.512278788 5.35253333,0.501721212 C5.39224242,0.496363636 5.4288,0.494945455 5.4619697,0.494945455 C5.50995152,0.494551515 5.55667273,0.498648485 5.60063636,0.506133333 C5.64223636,0.512278788 5.68281212,0.522048485 5.72299394,0.534024242 C5.73701818,0.499830303 5.7531697,0.46689697 5.77278788,0.43790303 C5.82029697,0.368569697 5.89002424,0.307430303 5.97030909,0.267484848 C6.04681212,0.227775758 6.1158303,0.211230303 6.18563636,0.202248485 C6.21762424,0.198466667 6.2458303,0.197363636 6.27033333,0.197363636 C6.31579394,0.197363636 6.35723636,0.201460606 6.39552727,0.207763636 C6.41183636,0.2106 6.42633333,0.215012121 6.44177576,0.218715152 C6.49235758,0.148593939 6.55215758,0.103054545 6.61069697,0.0707515152 C6.68901212,0.0297818182 6.75062424,0.017569697 6.80971515,0.00913939394 C6.83839394,0.00559393939 6.86344848,0.00433333333 6.88700606,0.00433333333 C6.92206667,0.00433333333 6.95673333,0.00685454545 6.99155758,0.013 C7.04789091,0.0211939394 7.10335758,0.0371090909 7.15433333,0.0587757576 C7.21452727,0.0829636364 7.26786667,0.114242424 7.31214545,0.149775758 C7.35941818,0.186412121 7.41,0.237309091 7.44931515,0.300418182 L8.09663636,1.33710909 C8.10278182,1.33600606 8.10845455,1.33356364 8.11467879,1.33238182 L9.72990909,1.07332727 C9.77119394,1.06623636 9.80349697,1.06513333 9.82815758,1.06513333 C9.86432121,1.06513333 9.89544242,1.06844242 9.92136364,1.07230303 C9.99109091,1.08207273 10.0487636,1.10153333 10.0935939,1.12146667 C10.1421273,1.14210909 10.193103,1.16905455 10.2375394,1.20340606 C10.2952909,1.2454 10.3389394,1.29298788 10.3751818,1.34136364 C10.409297,1.39068485 10.4447515,1.44441818 10.4666545,1.53998788 L10.4668909,1.53998788 C10.4742182,1.57315758 10.4787879,1.60853333 10.4787879,1.64674545 C10.4787879,1.65706667 10.4770545,1.66786061 10.4762667,1.67833939 C10.5131394,1.69811515 10.5488303,1.72009697 10.5841273,1.74641212 C10.6324242,1.78415152 10.6860788,1.83315758 10.7328788,1.89949697 C10.7748727,1.95874545 10.8095394,2.0260303 10.8316788,2.11474545 C10.8396364,2.15161818 10.8446,2.19061818 10.8446,2.23253333 C10.8446,2.27775758 10.8381394,2.32684242 10.8238788,2.37624242 C10.8371939,2.38104848 10.8519273,2.38561818 10.8646121,2.39081818 C10.9347333,2.42052121 10.9998909,2.4576303 11.0613455,2.50529697 C11.1316242,2.55666667 11.1922121,2.61898788 11.2468909,2.69352121 C11.290697,2.75773333 11.3297758,2.82927273 11.3543576,2.92058788 L11.3564061,2.92893939 L11.3583758,2.93673939 C11.3662545,2.97369091 11.3734242,3.0179697 11.3737394,3.07249091 C11.3737394,3.11787273 11.3681455,3.16924242 11.3540424,3.21864242 C11.345297,3.25055152 11.3321394,3.28135758 11.3175636,3.31113939 C11.3418303,3.32729091 11.3668061,3.3429697 11.3898909,3.36085455 C11.4615879,3.41726667 11.5306061,3.48549697 11.5833939,3.56058182 C11.6481576,3.64756364 11.6940909,3.74313333 11.7185152,3.84421818 L11.7182788,3.84429697 C11.7322242,3.89834545 11.7396303,3.95452121 11.7396303,4.01227273 C11.7396303,4.05639394 11.7356121,4.10138182 11.7255273,4.14684242 L11.7248182,4.15007273 L11.7222182,4.16 C11.7069333,4.22389697 11.6753394,4.29764242 11.6282242,4.3647697 C11.6312182,4.36634545 11.6343697,4.36697576 11.6373636,4.36807879 C11.7358485,4.41188485 11.8297636,4.46853333 11.9166667,4.53802424 C12.0060121,4.6098 12.0845636,4.69355152 12.1553939,4.7918 C12.221497,4.88807879 12.270897,4.99081818 12.3033576,5.10521818 C12.3213212,5.17250303 12.3326667,5.24498788 12.3326667,5.32212121 C12.3326667,5.3644303 12.3292,5.40847273 12.3210061,5.45314545 C12.2995758,5.57203636 12.2460788,5.68856364 12.1616182,5.78712727 C12.1423152,5.80942424 12.1213576,5.82927879 12.0997697,5.84818788 C12.1037091,5.84992121 12.1079636,5.85078788 12.111903,5.85267879 C12.2334727,5.90546667 12.3464545,5.97661212 12.4518727,6.06225455 C12.5569758,6.14978788 12.6508121,6.25260606 12.7292061,6.3674 C12.8120121,6.48865455 12.8692909,6.61581818 12.9046667,6.73967273 L12.9048242,6.73967273 Z M12.5545333,6.75377576 C12.5298727,6.66687273 12.4900848,6.57792121 12.4304424,6.49101818 C12.3719818,6.40513939 12.3015455,6.32816364 12.224097,6.26363636 C12.1464121,6.20013333 12.0617152,6.14766061 11.9756,6.11015758 C11.8890121,6.07131515 11.7991939,6.04578788 11.7136303,6.03735758 C11.6275152,6.02916364 11.5428182,6.03617576 11.4667091,6.06225455 L5.20835152,8.15998182 C5.09284848,8.1978 4.99089697,8.25893939 4.90517576,8.33378788 C4.81913939,8.41005455 4.74901818,8.50286667 4.69804242,8.60592121 C4.64738182,8.7093697 4.61641818,8.82424242 4.60822424,8.94266061 C4.59916364,9.06312727 4.61641818,9.18745455 4.65864848,9.30941818 C4.70095758,9.43264242 4.76792727,9.54121212 4.8509697,9.63323636 C4.93558788,9.7246303 5.03580606,9.79924242 5.14705455,9.85108485 C5.2578303,9.90324242 5.37790303,9.93452121 5.50033939,9.93972121 C5.62356364,9.94468485 5.74733939,9.92530303 5.8675697,9.87763636 L12.3095818,7.35153939 C12.3882121,7.32120606 12.4496667,7.27338182 12.4952061,7.21389697 C12.5394848,7.15386061 12.5669818,7.08208485 12.5763576,7.00290303 C12.5864424,6.92506061 12.5798242,6.83989091 12.5545333,6.75377576 Z M2.00885455,2.73204848 C1.98490303,2.65775152 1.93991515,2.59117576 1.8804303,2.53342424 C1.82338788,2.47543636 1.74909091,2.42769091 1.6659697,2.39081818 C1.58253333,2.35378788 1.49074545,2.32723636 1.39226061,2.31415758 C1.29346061,2.30123636 1.18875152,2.30123636 1.08585455,2.31707273 C0.978939394,2.33251515 0.882424242,2.36284848 0.796939394,2.40358182 C0.711533333,2.44533939 0.637393939,2.49686667 0.580036364,2.55737576 C0.522206061,2.61772727 0.479266667,2.68572121 0.456575758,2.75852121 C0.4342,2.83155758 0.430890909,2.90892727 0.450430303,2.9874 L2.22386667,9.72376364 C2.25837576,9.85518182 2.31904242,9.97155152 2.40161212,10.0684606 C2.48370909,10.1659212 2.58455758,10.2452606 2.70061212,10.299703 C2.81619394,10.3550121 2.94390909,10.3871576 3.07587879,10.3914121 C3.20966061,10.3972424 3.3462,10.3749455 3.48187273,10.3249939 C3.61549697,10.2733879 3.73328485,10.1986182 3.8330303,10.1065939 C3.93001818,10.0166182 4.01022424,9.90954545 4.06726667,9.79309697 C4.12352121,9.6791697 4.15952727,9.55555152 4.16992727,9.43035758 C4.17946061,9.30579394 4.16598788,9.17957576 4.12430909,9.05816364 L2.00885455,2.73204848 Z M11.0889212,4.57875758 L6.25591515,5.9299697 C6.1704303,5.95313333 6.09518788,5.99244848 6.0346,6.04161212 C5.97338182,6.09282424 5.92311515,6.15435758 5.89049697,6.22329697 C5.85575152,6.2926303 5.83629091,6.36984242 5.83432121,6.45107273 C5.83266667,6.53293333 5.84976364,6.61676364 5.88624242,6.70161818 C5.92161818,6.78513333 5.97511515,6.86069091 6.0398,6.92435152 C6.10495758,6.98903636 6.18130303,7.04174545 6.26379394,7.07956364 C6.34786061,7.11856364 6.43791515,7.14172727 6.5286,7.14850303 C6.61920606,7.15630303 6.71154545,7.14708485 6.79892121,7.11919394 L11.7402606,5.53847273 C11.8036061,5.51767273 11.8544242,5.48458182 11.8910606,5.44306061 C11.9271455,5.40043636 11.9511758,5.34961818 11.9615758,5.29226061 C11.971897,5.23632121 11.9675636,5.17455152 11.9503879,5.11026061 C11.9323455,5.04652121 11.9012242,4.98002424 11.8569455,4.91612727 C11.8100667,4.8509697 11.7559394,4.79345455 11.6941697,4.74397576 C11.6334242,4.69528485 11.5668485,4.65494545 11.498697,4.62469091 C11.4287333,4.59459394 11.3573515,4.57434545 11.2874667,4.56686061 C11.2193152,4.55803636 11.1510061,4.56181818 11.0889212,4.57875758 Z M8.15517576,1.85970909 C8.17692121,1.87704242 8.19992727,1.89114545 8.22750303,1.90304242 C8.25184848,1.91367879 8.28013333,1.92163636 8.30802424,1.9259697 C8.3349697,1.93014545 8.36309697,1.93077576 8.38838788,1.9259697 L10.0209515,1.6458 C10.0433273,1.64225455 10.0625515,1.63508485 10.0768121,1.62413333 C10.0933576,1.61318182 10.1035212,1.59915758 10.1085636,1.58324242 C10.1139212,1.56756364 10.115103,1.55007273 10.1105333,1.53132121 C10.1071455,1.5132 10.0966667,1.49263636 10.0827212,1.47317576 C10.0674364,1.45308485 10.0498667,1.43480606 10.0292242,1.41952121 C10.0084242,1.40360606 9.98455152,1.39044848 9.96004848,1.3799697 C9.93538788,1.36917576 9.91033333,1.36121818 9.88512121,1.3578303 C9.85990909,1.35428485 9.8351697,1.35373333 9.81247879,1.35704242 L8.19157576,1.61727879 C8.16628485,1.62129697 8.14414545,1.62996364 8.12736364,1.64075758 C8.11089697,1.65194545 8.09616364,1.66699394 8.0886,1.68298788 C8.07969697,1.70008485 8.07654545,1.71899394 8.0788303,1.73892727 C8.08064242,1.75886061 8.0886,1.77934545 8.10167879,1.80195758 C8.11538788,1.82315152 8.13374545,1.8427697 8.15517576,1.85970909 Z M5.45653333,4.94181212 C5.48316364,5.00192727 5.52334545,5.05723636 5.57290303,5.10348485 C5.62198788,5.14989091 5.67895152,5.18912727 5.74300606,5.21749091 C5.80753333,5.24758788 5.87576364,5.26539394 5.94651515,5.27311515 C6.01655758,5.28067879 6.08809697,5.2754 6.15640606,5.25806667 C6.22534545,5.24018182 6.28396364,5.21142424 6.33155152,5.17407879 C6.37945455,5.13665455 6.4161697,5.09087879 6.44130303,5.04037576 C6.46564848,4.9900303 6.47935758,4.93511515 6.47833333,4.87775758 C6.47770303,4.81992727 6.46407273,4.76107273 6.43539394,4.70229697 L4.80448485,1.35436364 C4.784,1.31071515 4.75169697,1.27092727 4.71206667,1.23681212 C4.67133333,1.20230303 4.62390303,1.17252121 4.57127273,1.1498303 C4.51950909,1.12769091 4.46183636,1.1108303 4.40282424,1.10113939 C4.34349697,1.09247273 4.28212121,1.09129091 4.22169091,1.09846061 C4.16149697,1.10657576 4.10784242,1.12304242 4.06135758,1.14494545 C4.01621212,1.16771515 3.97847273,1.19733939 3.95073939,1.23113939 C3.92395152,1.26517576 3.90677576,1.30393939 3.90055152,1.34514545 C3.89456364,1.38690303 3.90126061,1.43070909 3.92127273,1.47553939 L5.45653333,4.94181212 Z M5.06338182,7.34539394 C5.15761212,7.31458788 5.24049697,7.2696 5.30959394,7.2124 C5.37695758,7.15464848 5.43210909,7.08555152 5.46929697,7.00975758 C5.50648485,6.93459394 5.52618182,6.85344242 5.52901818,6.76866667 C5.5321697,6.68601818 5.51806667,6.60045455 5.48229697,6.5162303 L3.56357576,1.92313333 C3.53946667,1.86577576 3.50164848,1.81440606 3.4521697,1.76965455 C3.4040303,1.72498182 3.34273333,1.68700606 3.27710303,1.65738182 C3.20966061,1.62807273 3.13646667,1.60727273 3.05941212,1.59632121 C2.98306667,1.58481818 2.9016,1.58418788 2.82210303,1.59545455 C2.74126667,1.60609091 2.66941212,1.62807273 2.6071697,1.65864242 C2.54445455,1.68866061 2.49103636,1.72766061 2.45109091,1.77327879 C2.41185455,1.81881818 2.3835697,1.87034545 2.37238182,1.92486667 C2.36032727,1.97978182 2.36355758,2.03808485 2.38349091,2.09709697 L4.12218182,6.91111515 C4.15401212,6.9985697 4.20451515,7.07712121 4.26809697,7.14448485 C4.3322303,7.2117697 4.41086061,7.26581818 4.49681818,7.30592121 C4.58230303,7.34626061 4.67574545,7.37052727 4.77241818,7.37753939 C4.86814545,7.3846303 4.96741818,7.37486061 5.06338182,7.34539394 Z M7.52313939,3.25354545 C7.48965455,3.27741818 7.4652303,3.30680606 7.449,3.33973939 C7.43261212,3.37346061 7.42552121,3.41041212 7.42827879,3.4508303 C7.43095758,3.49030303 7.44309091,3.53166667 7.46688485,3.57421212 C7.48886667,3.61636364 7.52219394,3.65433939 7.55859394,3.68758788 C7.59830303,3.71965455 7.64124242,3.74793939 7.68875152,3.76866061 C7.73539394,3.78946061 7.78652727,3.80372121 7.83647879,3.80955152 C7.88674545,3.81569697 7.93740606,3.81404242 7.98412727,3.8038 L10.8589394,3.14765455 C10.8981758,3.13851515 10.9300848,3.12291515 10.9548242,3.10156364 C10.9775152,3.08013333 10.9938242,3.05397576 11.0024121,3.02348485 C11.0111576,2.99346667 11.0094242,2.96116364 11.0014667,2.9256303 C10.9922485,2.89104242 10.9738909,2.85424848 10.9491515,2.81824242 C10.9220485,2.78144848 10.8902182,2.74898788 10.8514545,2.72038788 C10.8167091,2.69257576 10.775503,2.66799394 10.7329576,2.65026667 C10.6911212,2.63285455 10.6475515,2.61890909 10.6045333,2.61307879 C10.5629333,2.60709091 10.5184182,2.60748485 10.4803636,2.61567879 L7.64218788,3.20264848 C7.59578182,3.21249697 7.55520606,3.23030303 7.52313939,3.25354545 Z M6.51906667,3.62573939 C6.54152121,3.66828485 6.57169697,3.70752121 6.61046061,3.74092727 C6.64835758,3.77449091 6.69279394,3.80246061 6.74109091,3.82357576 C6.78844242,3.84469091 6.83957576,3.85950303 6.89228485,3.86612121 C6.9446,3.8720303 6.9972303,3.87013939 7.04655152,3.85950303 C7.09650303,3.84831515 7.13865455,3.82846061 7.1727697,3.8038 C7.20775152,3.7778 7.23461818,3.7466 7.2514,3.71169697 C7.26857576,3.67671515 7.27519394,3.63795152 7.27369697,3.59706061 C7.27101818,3.55687879 7.25967273,3.51512121 7.23595758,3.47312727 L5.87757576,0.987448485 C5.85953333,0.953884848 5.83266667,0.923315152 5.80091515,0.895975758 C5.76806061,0.869581818 5.73016364,0.846890909 5.68935152,0.828927273 C5.64869697,0.810963636 5.60331515,0.797806061 5.55738182,0.790636364 C5.51223636,0.783545455 5.46590909,0.782127273 5.41989697,0.7878 C5.37333333,0.793945455 5.33386061,0.805842424 5.30006061,0.82270303 C5.26736364,0.839327273 5.23970909,0.86209697 5.22056364,0.887624242 C5.2019697,0.913545455 5.19030909,0.943090909 5.18865455,0.974606061 C5.1863697,1.00604242 5.19385455,1.03952727 5.21189697,1.07419394 L6.51906667,3.62573939 Z M7.14007273,2.53578788 C7.15638182,2.56572727 7.18135758,2.59306667 7.20901212,2.61709697 C7.23737576,2.64112727 7.27109697,2.66035152 7.30481818,2.67618788 C7.34003636,2.69178788 7.37777576,2.70258182 7.41551515,2.70801818 C7.45325455,2.71258788 7.49052121,2.71227273 7.52668485,2.70573333 C7.56253333,2.69864242 7.59381212,2.6858 7.61807879,2.66917576 C7.6420303,2.65184242 7.66117576,2.63135758 7.6732303,2.60724848 C7.68457576,2.58298182 7.69001212,2.5558 7.68780606,2.5278303 C7.68575758,2.50041212 7.6752,2.47047273 7.65873333,2.44116364 L6.59564848,0.639757576 C6.58052121,0.615018182 6.55972121,0.592327273 6.53387879,0.572472727 C6.50953333,0.551672727 6.48124848,0.535206061 6.44933939,0.521181818 C6.41735152,0.508260606 6.38347273,0.497939394 6.3498303,0.492345455 C6.31516364,0.486515152 6.27994545,0.485175758 6.24606667,0.489509091 C6.21321212,0.493448485 6.18311515,0.502587879 6.15987273,0.515430303 C6.13466061,0.527248485 6.1158303,0.544187879 6.1028303,0.562939394 C6.09006667,0.5824 6.08297576,0.603751515 6.08297576,0.626836364 C6.08297576,0.650315152 6.08896364,0.675527273 6.10369697,0.70050303 L7.14007273,2.53578788 Z M7.95221818,2.25798182 C7.91786667,2.26389091 7.88824242,2.2756303 7.8643697,2.29138788 C7.84246667,2.30761818 7.82355758,2.32778788 7.81181818,2.35087273 C7.80047273,2.37458788 7.79472121,2.39995758 7.79771515,2.42808485 C7.80047273,2.45597576 7.8097697,2.48552121 7.8279697,2.51546061 C7.84601212,2.54453333 7.86909697,2.57132121 7.89793333,2.59432727 C7.92621818,2.61804242 7.95883636,2.63773939 7.99295152,2.65302424 C8.02714545,2.66799394 8.06472727,2.67815758 8.10136364,2.68367273 C8.13855152,2.6884 8.17558182,2.68824242 8.21032727,2.68138788 L10.3629697,2.26365455 C10.3921212,2.25790303 10.4171758,2.24679394 10.4359273,2.23158788 C10.453497,2.21653939 10.4662606,2.1976303 10.4738242,2.17643636 C10.4802061,2.15508485 10.4810727,2.13152727 10.4751636,2.10544848 C10.4691758,2.08070909 10.4567273,2.05439394 10.4379758,2.02823636 C10.4189091,2.00097576 10.3944061,1.97741818 10.3669879,1.95606667 C10.3394121,1.93550303 10.3090788,1.91738182 10.2770909,1.90335758 C10.2451818,1.88996364 10.2108303,1.88003636 10.1782121,1.87554545 C10.1458303,1.87026667 10.114,1.87026667 10.0839818,1.87554545 L7.95221818,2.25798182 Z M7.59129091,1.80889091 C7.6043697,1.83079394 7.62249091,1.85112121 7.64321212,1.86782424 C7.6648,1.88476364 7.69009091,1.89957576 7.71601212,1.91107879 C7.74146061,1.92234545 7.77013939,1.93077576 7.79779394,1.9350303 C7.82607879,1.93873333 7.85420606,1.9389697 7.8799697,1.93416364 C7.90746667,1.93006667 7.92992121,1.92116364 7.94764848,1.90958182 C7.96616364,1.89744848 7.97884848,1.88224242 7.98751515,1.86561818 C7.99602424,1.84836364 8.00035758,1.82937576 7.99720606,1.80952121 C7.99610303,1.78856364 7.98751515,1.76744848 7.97569697,1.74609697 L7.1415697,0.410406061 C7.12967273,0.39110303 7.11375758,0.374242424 7.09335152,0.358484848 C7.07491515,0.343515152 7.05277576,0.330357576 7.02748485,0.320509091 C7.00369091,0.309793939 6.97847879,0.302072727 6.95184848,0.298133333 C6.92592727,0.293248485 6.89921818,0.292618182 6.87392727,0.295533333 C6.84966061,0.298606061 6.82657576,0.304672727 6.80853333,0.314521212 C6.7918303,0.323581818 6.77733333,0.335557576 6.76701212,0.349975758 C6.75984242,0.364315152 6.75393333,0.381175758 6.75511515,0.398666667 C6.75511515,0.416315152 6.76118182,0.434751515 6.7723697,0.453660606 L7.59129091,1.80889091 Z M10.6960061,3.43641212 L6.99108485,4.31245455 C6.92923636,4.32679394 6.87471515,4.35271515 6.82988485,4.3862 C6.78560606,4.4193697 6.75054545,4.46167879 6.72824848,4.50926667 C6.70382424,4.55661818 6.69366061,4.6098 6.6943697,4.66526667 C6.69618182,4.72073333 6.70918182,4.77974545 6.73825455,4.83820606 C6.76693333,4.89706061 6.80853333,4.94992727 6.85848485,4.9952303 C6.90772727,5.04069091 6.9660303,5.07850909 7.02835152,5.10624242 C7.09004242,5.13405455 7.15638182,5.15335758 7.22429697,5.15958182 C7.2910303,5.16675152 7.35910303,5.16289091 7.423,5.14595152 L11.1892182,4.14644848 C11.2390121,4.13313333 11.2789576,4.11036364 11.3092909,4.08042424 C11.3399394,4.05087879 11.3582182,4.01471515 11.3685394,3.97374545 C11.3773636,3.93340606 11.3762606,3.88778788 11.363497,3.84059394 C11.3520727,3.79418788 11.3293818,3.7446303 11.2936121,3.69672727 C11.2596545,3.64866667 11.2173455,3.60572727 11.1697576,3.56814545 C11.1231152,3.53174545 11.0708788,3.5002303 11.0177758,3.47761818 C10.962703,3.45374545 10.9076303,3.43751515 10.8530303,3.43042424 C10.7988242,3.42309697 10.7452485,3.42443636 10.6960061,3.43641212 Z" transform="translate(0 1.5)"/>
</svg>
