<svg xmlns="http://www.w3.org/2000/svg" width="16" height="16" viewBox="0 0 16 16">
  <g fill="none" fill-rule="evenodd" transform="translate(0 1.5)">
    <path fill="#889EA6" d="M15.8828606,8.29498182 L15.8826667,8.29498182 C15.8391273,8.14254545 15.7686303,7.98603636 15.6667152,7.8368 C15.5702303,7.69551515 15.4547394,7.5689697 15.3253818,7.46123636 C15.1956364,7.3558303 15.0565818,7.26826667 14.9069576,7.20329697 C14.9021091,7.2009697 14.8968727,7.19990303 14.8920242,7.1977697 C14.9185939,7.17449697 14.9443879,7.15006061 14.9681455,7.12261818 C15.072097,7.00130909 15.1379394,6.85789091 15.1643152,6.71156364 C15.1744,6.65658182 15.1786667,6.60237576 15.1786667,6.55030303 C15.1786667,6.4553697 15.164703,6.36615758 15.1425939,6.28334545 C15.1026424,6.14254545 15.0418424,6.01609697 14.9604848,5.8976 C14.8733091,5.77667879 14.7766303,5.6736 14.6666667,5.58526061 C14.5597091,5.49973333 14.4441212,5.43001212 14.3229091,5.37609697 C14.3192242,5.37473939 14.3153455,5.37396364 14.3116606,5.37202424 C14.3696485,5.28940606 14.4085333,5.19864242 14.4273455,5.12 L14.4305455,5.10778182 L14.4314182,5.10380606 C14.4438303,5.04785455 14.4487758,4.99248485 14.4487758,4.93818182 C14.4487758,4.86710303 14.4396606,4.79796364 14.422497,4.73144242 L14.4227879,4.73134545 C14.3927273,4.60693333 14.3361939,4.48930909 14.2564848,4.38225455 C14.1915152,4.28984242 14.1065697,4.20586667 14.0183273,4.13643636 C13.9899152,4.11442424 13.9591758,4.09512727 13.9293091,4.07524848 C13.9472485,4.03859394 13.9634424,4.00067879 13.9742061,3.96140606 C13.9915636,3.90060606 13.9984485,3.83738182 13.9984485,3.78152727 C13.9980606,3.71442424 13.9892364,3.65992727 13.9795394,3.61444848 L13.9771152,3.60484848 L13.9745939,3.5945697 C13.9443394,3.48218182 13.8962424,3.39413333 13.8423273,3.31510303 C13.7750303,3.2233697 13.7004606,3.14666667 13.6139636,3.08344242 C13.5383273,3.02477576 13.4581333,2.97910303 13.3718303,2.94254545 C13.3562182,2.93614545 13.3380848,2.93052121 13.321697,2.92460606 C13.3392485,2.86380606 13.3472,2.80339394 13.3472,2.74773333 C13.3472,2.69614545 13.3410909,2.64814545 13.331297,2.60276364 C13.3040485,2.49357576 13.2613818,2.41076364 13.209697,2.33784242 C13.152097,2.25619394 13.0860606,2.19587879 13.0266182,2.1494303 C12.9831758,2.11704242 12.9392485,2.08998788 12.8938667,2.06564848 C12.8948364,2.05275152 12.8969697,2.03946667 12.8969697,2.02676364 C12.8969697,1.97973333 12.8913455,1.93619394 12.8823273,1.8953697 L12.8820364,1.8953697 C12.8550788,1.77774545 12.8114424,1.71161212 12.7694545,1.65090909 C12.7248485,1.5913697 12.6711273,1.5328 12.6000485,1.48111515 C12.5453576,1.43883636 12.4826182,1.40567273 12.4228848,1.38026667 C12.3677091,1.35573333 12.2967273,1.33178182 12.2109091,1.31975758 C12.1790061,1.31500606 12.140703,1.31093333 12.0961939,1.31093333 C12.0658424,1.31093333 12.0260848,1.31229091 11.9752727,1.32101818 L9.98729697,1.63985455 C9.97963636,1.64130909 9.97265455,1.64431515 9.96509091,1.64567273 L9.16838788,0.369745455 C9.12,0.292072727 9.05774545,0.229430303 8.99956364,0.184339394 C8.94506667,0.140606061 8.87941818,0.102109091 8.80533333,0.0723393939 C8.74259394,0.0456727273 8.67432727,0.0260848485 8.60499394,0.016 C8.56213333,0.00843636364 8.51946667,0.00533333333 8.47631515,0.00533333333 C8.44732121,0.00533333333 8.41648485,0.00688484848 8.38118788,0.0112484848 C8.30846061,0.0216242424 8.2326303,0.0366545455 8.13624242,0.0870787879 C8.06419394,0.126836364 7.99059394,0.182884848 7.92833939,0.269187879 C7.90933333,0.264630303 7.89149091,0.2592 7.87141818,0.255709091 C7.82429091,0.247951515 7.77328485,0.242909091 7.71733333,0.242909091 C7.68717576,0.242909091 7.65246061,0.244266667 7.61309091,0.248921212 C7.52717576,0.259975758 7.4422303,0.280339394 7.34807273,0.329212121 C7.24926061,0.378375758 7.16344242,0.453624242 7.1049697,0.538957576 C7.08082424,0.574642424 7.06094545,0.615175758 7.04368485,0.657260606 C6.9942303,0.642521212 6.94429091,0.63049697 6.89309091,0.622933333 C6.83898182,0.613721212 6.78147879,0.608678788 6.72242424,0.609163636 C6.6816,0.609163636 6.63660606,0.610909091 6.58773333,0.61750303 C6.4886303,0.63049697 6.38700606,0.65910303 6.29459394,0.705163636 C6.19054545,0.758593939 6.10317576,0.826860606 6.02938182,0.924024242 C5.9785697,0.993745455 5.93939394,1.0742303 5.91699394,1.16208485 C5.87665455,1.13871515 5.83602424,1.11612121 5.79267879,1.09740606 C5.69047273,1.05347879 5.58477576,1.02283636 5.47461818,1.00509091 C5.40528485,0.994909091 5.34021818,0.989769697 5.27369697,0.989769697 C5.22424242,0.989769697 5.17158788,0.99209697 5.11495758,0.999563636 C4.99267879,1.01575758 4.87854545,1.04989091 4.77604848,1.09915152 C4.66036364,1.15762424 4.56048485,1.23122424 4.47806061,1.33275152 C4.39369697,1.43873939 4.33638788,1.56421818 4.31631515,1.69842424 C4.31253333,1.72460606 4.31107879,1.75214545 4.31001212,1.78075152 C4.27549091,1.76164848 4.24135758,1.74099394 4.20606061,1.72470303 C4.07941818,1.67010909 3.94860606,1.63267879 3.81071515,1.61309091 C3.74429091,1.6032 3.66991515,1.59738182 3.59466667,1.59738182 C3.52678788,1.59738182 3.45667879,1.60145455 3.38482424,1.61250909 C3.24538182,1.63064242 3.10652121,1.67166061 2.98123636,1.73381818 C2.85973333,1.79209697 2.74249697,1.87500606 2.64475152,1.98487273 C2.55166061,2.09309091 2.47369697,2.22467879 2.43975758,2.38778182 C2.42802424,2.44004848 2.42123636,2.50046061 2.42152727,2.56261818 C2.42123636,2.6249697 2.43064242,2.68761212 2.44441212,2.75006061 C2.37294545,2.70215758 2.29769697,2.66084848 2.22031515,2.62681212 C2.07844848,2.56387879 1.92193939,2.51801212 1.75486061,2.49648485 C1.67747879,2.48581818 1.59747879,2.48019394 1.51621818,2.48019394 C1.4272,2.48019394 1.33604848,2.48698182 1.24266667,2.50181818 C1.0710303,2.52654545 0.906569697,2.57764848 0.758787879,2.64795152 C0.608969697,2.72174545 0.471272727,2.81415758 0.353066667,2.93808485 C0.242327273,3.05357576 0.147006061,3.1977697 0.0934787879,3.36833939 C0.0641939394,3.46307879 0.0485818182,3.56169697 0.0488727273,3.66293333 C0.0485818182,3.74254545 0.0586666667,3.82506667 0.0788363636,3.90603636 L2.26278788,12.2012121 C2.32184242,12.4274424 2.42967273,12.6365091 2.57852121,12.8107636 C2.71854545,12.9773576 2.89658182,13.1187394 3.10429091,13.2158061 C3.30133333,13.3102545 3.52203636,13.3659152 3.75146667,13.372897 C3.77338182,13.3743515 3.79752727,13.3743515 3.81818182,13.3743515 L3.82128485,13.3743515 C4.02763636,13.3743515 4.23214545,13.3340121 4.42715152,13.2628364 C4.65493333,13.1750788 4.85149091,13.0503758 5.01653333,12.8978424 C5.17837576,12.7479273 5.31112727,12.5709576 5.40809697,12.374303 C5.44281212,12.304097 5.47122424,12.2302061 5.4966303,12.1554424 C5.52989091,12.2004364 5.5648,12.2438788 5.60184242,12.2844121 C5.74894545,12.4441212 5.92145455,12.5729939 6.11646061,12.6639515 C6.30438788,12.7529697 6.51267879,12.8072727 6.72950303,12.8170667 C6.76004848,12.8178424 6.78118788,12.8178424 6.79670303,12.8178424 C6.9897697,12.8178424 7.18593939,12.7820606 7.37357576,12.7087515 L15.3020121,9.59980606 C15.4764606,9.53318788 15.6267636,9.41643636 15.7317818,9.2790303 C15.8435879,9.12795152 15.9057455,8.9590303 15.9260121,8.78846061 C15.9317333,8.74269091 15.9344485,8.69372121 15.9344485,8.64591515 C15.9341576,8.52790303 15.9166061,8.41018182 15.8828606,8.29498182 Z"/>
    <path fill="#FFF" fill-rule="nonzero" d="M15.4517333,8.31233939 C15.4213818,8.20538182 15.3724121,8.09590303 15.2990061,7.98894545 C15.2270545,7.88324848 15.1403636,7.78850909 15.0450424,7.70909091 C14.9494303,7.63093333 14.8451879,7.56635152 14.7392,7.52019394 C14.6326303,7.47238788 14.5220848,7.4409697 14.4167758,7.43059394 C14.3107879,7.42050909 14.2065455,7.42913939 14.1128727,7.46123636 L6.41027879,10.0430545 C6.26812121,10.0896 6.14264242,10.1648485 6.03713939,10.2569697 C5.93124848,10.3508364 5.84494545,10.4650667 5.78220606,10.591903 C5.71985455,10.7192242 5.68174545,10.8606061 5.67166061,11.0063515 C5.66050909,11.1546182 5.68174545,11.3076364 5.73372121,11.4577455 C5.78579394,11.6094061 5.86821818,11.7430303 5.97042424,11.8562909 C6.0745697,11.9687758 6.19791515,12.0606061 6.33483636,12.1244121 C6.47117576,12.1886061 6.61895758,12.227103 6.76964848,12.233503 C6.92130909,12.2396121 7.07364848,12.2157576 7.22162424,12.1570909 L15.1502545,9.04804848 C15.2470303,9.01071515 15.3226667,8.95185455 15.3787152,8.87864242 C15.4332121,8.80475152 15.4670545,8.71641212 15.4785939,8.61895758 C15.4910061,8.52315152 15.4828606,8.41832727 15.4517333,8.31233939 Z M2.47243636,3.36252121 C2.44295758,3.27107879 2.38758788,3.18913939 2.31437576,3.11806061 C2.2441697,3.04669091 2.15272727,2.98792727 2.05042424,2.94254545 C1.94773333,2.8969697 1.83476364,2.86429091 1.71355152,2.84819394 C1.59195152,2.83229091 1.46307879,2.83229091 1.33643636,2.85178182 C1.20484848,2.87078788 1.08606061,2.90812121 0.980848485,2.95825455 C0.875733333,3.00964848 0.784484848,3.07306667 0.713890909,3.14753939 C0.642715152,3.22181818 0.589866667,3.30550303 0.561939394,3.39510303 C0.5344,3.48499394 0.530327273,3.58021818 0.554375758,3.6768 L2.73706667,11.9677091 C2.77953939,12.1294545 2.85420606,12.2726788 2.9558303,12.3919515 C3.05687273,12.511903 3.18099394,12.6095515 3.3238303,12.6765576 C3.46608485,12.7446303 3.62327273,12.7841939 3.78569697,12.7894303 C3.95035152,12.7966061 4.1184,12.7691636 4.28538182,12.7076848 C4.44984242,12.6441697 4.59481212,12.5521455 4.71757576,12.4388848 C4.83694545,12.3281455 4.93566061,12.1963636 5.00586667,12.0530424 C5.07510303,11.9128242 5.11941818,11.7606788 5.13221818,11.6065939 C5.14395152,11.4532848 5.1273697,11.2979394 5.07607273,11.1485091 L2.47243636,3.36252121 Z M13.647903,5.63539394 L7.69958788,7.29842424 C7.59437576,7.32693333 7.5017697,7.37532121 7.4272,7.4358303 C7.35185455,7.49886061 7.28998788,7.57459394 7.24984242,7.65944242 C7.20707879,7.74477576 7.18312727,7.83980606 7.18070303,7.93978182 C7.17866667,8.04053333 7.19970909,8.14370909 7.24460606,8.24814545 C7.28814545,8.35093333 7.35398788,8.44392727 7.4336,8.52227879 C7.51379394,8.60189091 7.60775758,8.66676364 7.70928485,8.71330909 C7.81275152,8.76130909 7.92358788,8.78981818 8.0352,8.79815758 C8.14671515,8.80775758 8.26036364,8.79641212 8.36790303,8.76208485 L14.4495515,6.81658182 C14.5275152,6.79098182 14.5900606,6.75025455 14.6351515,6.69915152 C14.6795636,6.64669091 14.7091394,6.58414545 14.7219394,6.51355152 C14.7346424,6.44470303 14.7293091,6.36867879 14.7081697,6.28955152 C14.6859636,6.21110303 14.6476606,6.12926061 14.5931636,6.05061818 C14.5354667,5.97042424 14.4688485,5.89963636 14.3928242,5.83873939 C14.3180606,5.77881212 14.2361212,5.72916364 14.1522424,5.69192727 C14.0661333,5.65488485 13.9782788,5.62996364 13.8922667,5.62075152 C13.8083879,5.60989091 13.7243152,5.61454545 13.647903,5.63539394 Z M10.0371394,2.28887273 C10.063903,2.31020606 10.0922182,2.32756364 10.1261576,2.34220606 C10.1561212,2.35529697 10.1909333,2.36509091 10.2252606,2.37042424 C10.2584242,2.37556364 10.2930424,2.37633939 10.3241697,2.37042424 L12.3334788,2.0256 C12.3610182,2.02123636 12.3846788,2.01241212 12.4022303,1.99893333 C12.4225939,1.98545455 12.435103,1.96819394 12.4413091,1.94860606 C12.447903,1.92930909 12.4493576,1.90778182 12.4437333,1.88470303 C12.4395636,1.8624 12.4266667,1.83709091 12.409503,1.81313939 C12.3906909,1.78841212 12.3690667,1.76591515 12.3436606,1.74710303 C12.3180606,1.72751515 12.2886788,1.71132121 12.2585212,1.69842424 C12.2281697,1.68513939 12.1973333,1.67534545 12.166303,1.67117576 C12.1352727,1.66681212 12.1048242,1.66613333 12.076897,1.67020606 L10.0819394,1.99049697 C10.0508121,1.99544242 10.0235636,2.00610909 10.0029091,2.01939394 C9.98264242,2.03316364 9.96450909,2.05168485 9.9552,2.0713697 C9.94424242,2.09241212 9.94036364,2.11568485 9.94317576,2.14021818 C9.94540606,2.16475152 9.9552,2.18996364 9.97129697,2.21779394 C9.9881697,2.24387879 10.0107636,2.26802424 10.0371394,2.28887273 Z M6.71573333,6.0822303 C6.74850909,6.15621818 6.79796364,6.22429091 6.85895758,6.28121212 C6.9193697,6.33832727 6.98947879,6.38661818 7.06831515,6.42152727 C7.14773333,6.4585697 7.23170909,6.48048485 7.31878788,6.48998788 C7.40499394,6.49929697 7.49304242,6.4928 7.57711515,6.47146667 C7.66196364,6.44945455 7.73410909,6.41406061 7.79267879,6.36809697 C7.85163636,6.32203636 7.89682424,6.26569697 7.92775758,6.20353939 C7.95772121,6.14157576 7.97459394,6.07398788 7.97333333,6.00339394 C7.97255758,5.93221818 7.95578182,5.85978182 7.92048485,5.78744242 L5.91321212,1.66690909 C5.888,1.61318788 5.84824242,1.56421818 5.79946667,1.5222303 C5.74933333,1.47975758 5.69095758,1.44310303 5.62618182,1.41517576 C5.56247273,1.38792727 5.49149091,1.36717576 5.41886061,1.35524848 C5.34584242,1.34458182 5.27030303,1.34312727 5.19592727,1.35195152 C5.12184242,1.36193939 5.05580606,1.38220606 4.99859394,1.40916364 C4.9430303,1.43718788 4.89658182,1.47364848 4.86244848,1.51524848 C4.82947879,1.55713939 4.80833939,1.60484848 4.80067879,1.65556364 C4.79330909,1.70695758 4.80155152,1.76087273 4.82618182,1.81604848 L6.71573333,6.0822303 Z M6.23185455,9.04048485 C6.3478303,9.0025697 6.44984242,8.9472 6.53488485,8.8768 C6.61779394,8.80572121 6.68567273,8.72067879 6.73144242,8.62739394 C6.77721212,8.53488485 6.80145455,8.43500606 6.80494545,8.33066667 C6.80882424,8.22894545 6.79146667,8.12363636 6.74744242,8.01997576 L4.38593939,2.36693333 C4.35626667,2.29633939 4.30972121,2.23311515 4.24882424,2.17803636 C4.18957576,2.12305455 4.11413333,2.07631515 4.03335758,2.03985455 C3.95035152,2.00378182 3.86026667,1.97818182 3.7654303,1.96470303 C3.67146667,1.95054545 3.5712,1.9497697 3.47335758,1.96363636 C3.37386667,1.97672727 3.2854303,2.00378182 3.20882424,2.04140606 C3.13163636,2.07835152 3.06589091,2.12635152 3.01672727,2.18249697 C2.96843636,2.23854545 2.93362424,2.30196364 2.91985455,2.36906667 C2.90501818,2.43665455 2.90899394,2.50841212 2.93352727,2.58104242 L5.07345455,8.50598788 C5.1126303,8.61362424 5.17478788,8.71030303 5.25304242,8.79321212 C5.33197576,8.87602424 5.42875152,8.94254545 5.53454545,8.99190303 C5.63975758,9.04155152 5.75476364,9.07141818 5.87374545,9.08004848 C5.99156364,9.08877576 6.11374545,9.07675152 6.23185455,9.04048485 Z M9.25924848,4.00436364 C9.21803636,4.03374545 9.18797576,4.06991515 9.168,4.11044848 C9.1478303,4.15195152 9.13910303,4.1974303 9.14249697,4.24717576 C9.14579394,4.29575758 9.16072727,4.34666667 9.19001212,4.3990303 C9.21706667,4.45090909 9.25808485,4.49764848 9.30288485,4.5385697 C9.35175758,4.57803636 9.40460606,4.61284848 9.46307879,4.63835152 C9.52048485,4.66395152 9.58341818,4.68150303 9.64489697,4.68867879 C9.70676364,4.69624242 9.76911515,4.69420606 9.82661818,4.6816 L13.3648485,3.87403636 C13.4131394,3.86278788 13.4524121,3.84358788 13.4828606,3.81730909 C13.5107879,3.79093333 13.5308606,3.75873939 13.5414303,3.72121212 C13.5521939,3.68426667 13.5500606,3.64450909 13.5402667,3.60077576 C13.5289212,3.55820606 13.5063273,3.51292121 13.4758788,3.46860606 C13.4425212,3.42332121 13.4033455,3.3833697 13.3556364,3.3481697 C13.3128727,3.31393939 13.2621576,3.28368485 13.2097939,3.26186667 C13.158303,3.24043636 13.1046788,3.22327273 13.0517333,3.21609697 C13.0005333,3.20872727 12.9457455,3.20921212 12.8989091,3.21929697 L9.4057697,3.94172121 C9.34865455,3.95384242 9.29871515,3.97575758 9.25924848,4.00436364 Z M8.02346667,4.46244848 C8.05110303,4.51481212 8.08824242,4.56310303 8.13595152,4.60421818 C8.18259394,4.64552727 8.23728485,4.67995152 8.29672727,4.70593939 C8.35500606,4.73192727 8.41793939,4.75015758 8.48281212,4.75830303 C8.5472,4.76557576 8.61197576,4.76324848 8.67267879,4.75015758 C8.73415758,4.73638788 8.78603636,4.71195152 8.82802424,4.6816 C8.87107879,4.6496 8.90414545,4.6112 8.9248,4.56824242 C8.94593939,4.52518788 8.95408485,4.47747879 8.95224242,4.42715152 C8.94894545,4.37769697 8.93498182,4.32630303 8.90579394,4.27461818 L7.23393939,1.21532121 C7.21173333,1.17401212 7.17866667,1.13638788 7.13958788,1.10273939 C7.09915152,1.07025455 7.05250909,1.04232727 7.00227879,1.02021818 C6.95224242,0.998109091 6.89638788,0.981915152 6.83985455,0.973090909 C6.78429091,0.964363636 6.72727273,0.962618182 6.67064242,0.9696 C6.61333333,0.977163636 6.56475152,0.991806061 6.52315152,1.01255758 C6.48290909,1.03301818 6.44887273,1.06104242 6.42530909,1.09246061 C6.40242424,1.12436364 6.38807273,1.16072727 6.38603636,1.19951515 C6.38322424,1.23820606 6.39243636,1.27941818 6.41464242,1.32208485 L8.02346667,4.46244848 Z M8.78778182,3.1209697 C8.80785455,3.15781818 8.83859394,3.19146667 8.8726303,3.22104242 C8.90753939,3.25061818 8.94904242,3.27427879 8.99054545,3.2937697 C9.03389091,3.3129697 9.08033939,3.32625455 9.12678788,3.33294545 C9.17323636,3.3385697 9.21910303,3.33818182 9.26361212,3.33013333 C9.30773333,3.32140606 9.3462303,3.3056 9.37609697,3.28513939 C9.40557576,3.26380606 9.42913939,3.23859394 9.44397576,3.20892121 C9.45793939,3.17905455 9.4646303,3.1456 9.46191515,3.11117576 C9.45939394,3.0774303 9.4464,3.04058182 9.42613333,3.00450909 L8.11772121,0.787393939 C8.09910303,0.756945455 8.07350303,0.729018182 8.04169697,0.704581818 C8.01173333,0.678981818 7.97692121,0.658715152 7.93764848,0.641454545 C7.89827879,0.625551515 7.85658182,0.612848485 7.81517576,0.605963636 C7.77250909,0.598787879 7.72916364,0.597139394 7.68746667,0.602472727 C7.6470303,0.607321212 7.60998788,0.618569697 7.58138182,0.634375758 C7.55035152,0.648921212 7.52717576,0.669769697 7.51117576,0.692848485 C7.49546667,0.7168 7.48673939,0.743078788 7.48673939,0.771490909 C7.48673939,0.800387879 7.49410909,0.831418182 7.51224242,0.862157576 L8.78778182,3.1209697 Z M9.78734545,2.77905455 C9.74506667,2.78632727 9.70860606,2.80077576 9.67922424,2.8201697 C9.65226667,2.84014545 9.62899394,2.8649697 9.61454545,2.89338182 C9.60058182,2.9225697 9.59350303,2.95379394 9.59718788,2.98841212 C9.60058182,3.02273939 9.61202424,3.05910303 9.63442424,3.09595152 C9.6566303,3.13173333 9.68504242,3.16470303 9.72053333,3.19301818 C9.75534545,3.22220606 9.79549091,3.24644848 9.83747879,3.26526061 C9.87956364,3.28368485 9.92581818,3.29619394 9.97090909,3.30298182 C10.0166788,3.3088 10.0622545,3.30860606 10.1050182,3.3001697 L12.7544242,2.78603636 C12.790303,2.77895758 12.8211394,2.76528485 12.8442182,2.7465697 C12.8658424,2.72804848 12.8815515,2.70477576 12.8908606,2.67869091 C12.8987152,2.65241212 12.8997818,2.62341818 12.8925091,2.59132121 C12.8851394,2.56087273 12.8698182,2.52848485 12.8467394,2.49629091 C12.8232727,2.46273939 12.7931152,2.43374545 12.7593697,2.40746667 C12.7254303,2.38215758 12.688097,2.35985455 12.6487273,2.34259394 C12.6094545,2.32610909 12.5671758,2.31389091 12.5270303,2.30836364 C12.4871758,2.30186667 12.448,2.30186667 12.4110545,2.30836364 L9.78734545,2.77905455 Z M9.34312727,2.22632727 C9.35922424,2.25328485 9.38152727,2.27830303 9.4070303,2.29886061 C9.4336,2.31970909 9.46472727,2.33793939 9.4966303,2.35209697 C9.52795152,2.36596364 9.56324848,2.37633939 9.59728485,2.38157576 C9.63209697,2.38613333 9.66671515,2.38642424 9.69842424,2.38050909 C9.73226667,2.37546667 9.75990303,2.36450909 9.78172121,2.35025455 C9.80450909,2.33532121 9.82012121,2.31660606 9.83078788,2.29614545 C9.84126061,2.27490909 9.84659394,2.25153939 9.84271515,2.22710303 C9.84135758,2.20130909 9.83078788,2.17532121 9.81624242,2.14904242 L8.78962424,0.505115152 C8.77498182,0.481357576 8.75539394,0.460606061 8.73027879,0.441212121 C8.70758788,0.422787879 8.68033939,0.406593939 8.64921212,0.394472727 C8.61992727,0.381284848 8.58889697,0.371781818 8.55612121,0.366933333 C8.52421818,0.360921212 8.49134545,0.360145455 8.46021818,0.363733333 C8.43035152,0.367515152 8.40193939,0.374981818 8.37973333,0.38710303 C8.35917576,0.398254545 8.34133333,0.412993939 8.3286303,0.430739394 C8.31980606,0.448387879 8.31253333,0.469139394 8.31398788,0.490666667 C8.31398788,0.512387879 8.32145455,0.535078788 8.33522424,0.558351515 L9.34312727,2.22632727 Z M13.1643152,4.2294303 L8.60441212,5.30763636 C8.52829091,5.32528485 8.46118788,5.35718788 8.40601212,5.3984 C8.35151515,5.43922424 8.30836364,5.49129697 8.28092121,5.54986667 C8.25086061,5.60814545 8.23835152,5.6736 8.23922424,5.74186667 C8.24145455,5.81013333 8.25745455,5.88276364 8.29323636,5.95471515 C8.32853333,6.02715152 8.37973333,6.09221818 8.44121212,6.14797576 C8.50181818,6.20392727 8.57357576,6.25047273 8.65027879,6.28460606 C8.72620606,6.31883636 8.80785455,6.34259394 8.89144242,6.35025455 C8.97357576,6.35907879 9.05735758,6.35432727 9.136,6.33347879 L13.7713455,5.10332121 C13.8326303,5.08693333 13.8817939,5.05890909 13.9191273,5.02206061 C13.9568485,4.98569697 13.9793455,4.94118788 13.9920485,4.89076364 C14.0029091,4.84111515 14.0015515,4.7849697 13.9858424,4.72688485 C13.9717818,4.6697697 13.9438545,4.60877576 13.8998303,4.54981818 C13.8580364,4.49066667 13.8059636,4.43781818 13.7473939,4.39156364 C13.6899879,4.34676364 13.625697,4.30797576 13.5603394,4.28014545 C13.4925576,4.25076364 13.4247758,4.23078788 13.3575758,4.22206061 C13.2908606,4.21304242 13.2249212,4.21469091 13.1643152,4.2294303 Z"/>
  </g>
</svg>
