<svg xmlns="http://www.w3.org/2000/svg" width="13" height="13" viewBox="0 0 13 13">
  <path fill="#AFB1B3" fill-rule="evenodd" d="M5.05330871,6.21724894e-15 L7.98234095,3.35528633 L7.84325238,3.51680877 L9.13094268,2.04964938 L9.12972992,3.51680877 L7.34700064,5.003 L8.54936204,4.00881697 L10.0812191,5.76824437 L6.42600064,5.771 L10.0782028,5.771641 L10.0782028,11.5261747 L5.62900064,6.436 L5.05300064,6.917 L5.05330871,6.92308023 L4.42252073,6.92308023 L1.79696614,6.90609708 L0.893476669,6.90609708 L3.89605077,4.45037181 L5.04800064,5.763 L6.39305547e-07,7.03875296e-05 L5.05330871,6.21724894e-15 Z M9.13094268,1.55610954 L9.55942501,1.55835286 L9.13094268,2.04964944 L7.98234095,3.35528633 L6.82700924,2.02721577 L7.38111957,1.55610954 L9.13094268,1.55610954 Z" transform="translate(1.1 1)"/>
</svg>
