<svg xmlns="http://www.w3.org/2000/svg" width="12" height="12" viewBox="0 0 12 12">
  <path fill="#AFB1B3" fill-rule="evenodd" d="M4.59391701,7.99360578e-15 L7.25667359,3.0502603 L7.13022943,3.19709888 L8.30085699,1.86331762 L8.29975447,3.19709888 L6.70400058,4.528 L7.77214731,3.64437906 L9.16474462,5.24385852 L5.84300058,5.246 L9.16200258,5.24694636 L9.16200258,10.4783406 L5.11800058,5.851 L4.59300058,6.289 L4.59391701,6.2937093 L4.02047339,6.2937093 L1.63360558,6.27827007 L0.812251518,6.27827007 L3.54186434,4.04579256 L3.96500058,4.528 L5.81186757e-07,6.39886633e-05 L4.59391701,7.99360578e-15 Z M8.30085699,1.41464504 L8.69038637,1.41668442 L8.30085699,1.86331768 L7.25667359,3.0502603 L6.20637204,1.84292343 L6.7101087,1.41464504 L8.30085699,1.41464504 Z" transform="translate(1 1)"/>
</svg>
