<svg xmlns="http://www.w3.org/2000/svg" width="16" height="16" viewBox="0 0 16 16">
  <g fill="none" transform="translate(2 2)">
    <polygon fill="#2266CF" points="0 0 5.896 0 5.896 6.731"/>
    <polygon fill="#64B8FF" points="5.896 0 9.313 3.915 9.15 4.103 5.889 4.103"/>
    <polygon fill="#248BF5" points="7.965 2.365 8.611 1.815 10.653 1.815 10.653 2.391 9.313 3.915"/>
    <polygon fill="#2266CF" points="10.653 1.815 11.153 1.818 10.653 2.391"/>
    <polygon fill="#E3F3FF" points="10.653 2.391 9.15 4.103 10.651 4.103"/>
    <polygon fill="#91CCFF" points="10.651 4.103 5.889 4.103 5.889 8.075"/>
    <polygon fill="#248BF5" points="5.896 6.731 5.896 8.077 5.16 8.077 5.16 7.403 4.359 8.057 4.359 6.872 2.917 8.057 2.917 7.395 2.096 8.057 1.042 8.057 4.545 5.192"/>
    <polygon fill="#64B8FF" points="2.096 8.057 2.917 7.395 2.917 8.057 4.359 6.872 4.359 8.057 5.16 7.403 5.16 8.077"/>
    <polygon fill="#64B8FF" points="7.49 6.734 9.974 4.677 11.761 6.73"/>
    <polygon fill="#2266CF" points="6.561 7.501 7.49 6.734 11.758 6.734 11.758 13.447"/>
  </g>
</svg>
